<svg width="36" height="36" viewBox="0 0 36 36" fill="none" xmlns="http://www.w3.org/2000/svg">
<path fill-rule="evenodd" clip-rule="evenodd" d="M16.887 5.07946C17.279 4.12279 18.3856 3.65959 19.3588 4.04488C19.8382 4.23467 20.2182 4.60824 20.4112 5.07946L23.4641 12.533L31.6208 13.0856C32.6059 13.1523 33.3637 13.9459 33.3894 14.8969L33.3855 15.0769C33.3501 15.5837 33.1061 16.0544 32.7098 16.3805L26.4414 21.5377L28.4282 29.3348C28.6681 30.2764 28.1345 31.2301 27.2224 31.548L27.0471 31.6C26.5458 31.7234 26.015 31.6408 25.577 31.3711L18.6491 27.1039L11.7212 31.3711C10.8844 31.8864 9.79681 31.6822 9.20743 30.9277L9.10294 30.7799C8.82861 30.3494 8.74454 29.8275 8.87011 29.3348L10.8556 21.5377L4.58843 16.3805C3.83427 15.7598 3.69384 14.6859 4.23417 13.9025L4.35133 13.7499C4.68307 13.3604 5.16191 13.1205 5.67746 13.0856L13.8329 12.533L16.887 5.07946ZM18.6491 7.44236L15.5898 14.9109L7.41977 15.4636L13.699 20.6314L11.7091 28.4397L18.6491 24.1669L25.5879 28.4397L23.5993 20.6314L29.8772 15.4636L21.7085 14.9109L18.6491 7.44236Z" fill="#E30C29"/>
</svg>
