<svg width="35" height="35" viewBox="0 0 35 35" fill="none" xmlns="http://www.w3.org/2000/svg">
<path d="M18.9583 16.9167L22.6042 20.5625C22.8715 20.8299 23.0052 21.1701 23.0052 21.5833C23.0052 21.9965 22.8715 22.3368 22.6042 22.6042C22.3368 22.8715 21.9965 23.0052 21.5833 23.0052C21.1701 23.0052 20.8299 22.8715 20.5625 22.6042L16.4792 18.5208C16.3333 18.375 16.224 18.2112 16.151 18.0294C16.0781 17.8476 16.0417 17.659 16.0417 17.4635V11.6667C16.0417 11.2535 16.1817 10.9069 16.4617 10.6269C16.7417 10.3469 17.0878 10.2074 17.5 10.2083C17.9132 10.2083 18.2598 10.3483 18.5398 10.6283C18.8198 10.9083 18.9593 11.2544 18.9583 11.6667V16.9167ZM17.5 30.625C14.559 30.625 11.9219 29.7558 9.58855 28.0175C7.25521 26.2792 5.6875 24.0129 4.88542 21.2188C4.76389 20.7812 4.80667 20.3681 5.01375 19.9792C5.22084 19.5903 5.54264 19.3472 5.97917 19.25C6.39237 19.1528 6.76327 19.2442 7.09188 19.5242C7.42049 19.8042 7.64507 20.1503 7.76563 20.5625C8.39757 22.7014 9.61917 24.4271 11.4304 25.7396C13.2417 27.0521 15.2649 27.7083 17.5 27.7083C20.3438 27.7083 22.7563 26.7176 24.7377 24.7362C26.7191 22.7549 27.7093 20.3428 27.7083 17.5C27.7083 14.6562 26.7176 12.2437 24.7363 10.2623C22.7549 8.2809 20.3428 7.29069 17.5 7.29167C15.8229 7.29167 14.2552 7.68056 12.7969 8.45833C11.3385 9.23611 10.1111 10.3056 9.11459 11.6667H11.6667C12.0799 11.6667 12.4265 11.8067 12.7065 12.0867C12.9865 12.3667 13.126 12.7128 13.125 13.125C13.125 13.5382 12.985 13.8848 12.705 14.1648C12.425 14.4448 12.0789 14.5843 11.6667 14.5833H5.83334C5.42014 14.5833 5.07355 14.4433 4.79355 14.1633C4.51355 13.8833 4.37403 13.5372 4.37501 13.125V7.29167C4.37501 6.87847 4.51501 6.53188 4.79501 6.25188C5.07501 5.97188 5.42112 5.83236 5.83334 5.83333C6.24653 5.83333 6.59313 5.97333 6.87313 6.25333C7.15313 6.53333 7.29264 6.87944 7.29167 7.29167V9.26042C8.53126 7.70486 10.0445 6.50174 11.8315 5.65104C13.6184 4.80035 15.5079 4.375 17.5 4.375C19.3229 4.375 21.0306 4.7216 22.6231 5.41479C24.2156 6.10799 25.601 7.04326 26.7794 8.22062C27.9577 9.39993 28.8935 10.7853 29.5867 12.3769C30.2799 13.9684 30.626 15.6761 30.625 17.5C30.625 19.3229 30.2784 21.0306 29.5852 22.6231C28.892 24.2156 27.9567 25.601 26.7794 26.7794C25.6001 27.9577 24.2147 28.8935 22.6231 29.5867C21.0316 30.2799 19.3239 30.626 17.5 30.625Z" fill="#E30C29"/>
</svg>
