<svg width="30" height="30" viewBox="0 0 30 30" fill="none" xmlns="http://www.w3.org/2000/svg">
<path d="M20.75 18.525C20.75 19.75 19.75 20.75 18.525 20.75C17.3 20.75 16.3125 19.75 16.3125 18.525C16.3125 17.3 17.3 16.3125 18.525 16.3125C19.75 16.3125 20.75 17.3 20.75 18.525ZM10.5375 12.75C11.7625 12.75 12.75 11.7625 12.75 10.5375C12.75 9.3 11.7625 8.3125 10.5375 8.3125C9.3 8.3125 8.3125 9.3 8.3125 10.5375C8.3125 11.7625 9.3 12.75 10.5375 12.75ZM8.25 18.9125L10.125 20.7875L20.7875 10.125L18.9125 8.25L8.25 18.9125ZM27 14.5C27 21.375 21.375 27 14.5 27C7.625 27 2 21.375 2 14.5C2 7.625 7.625 2 14.5 2C21.375 2 27 7.625 27 14.5ZM24.5 14.5C24.5 8.9875 20.0125 4.5 14.5 4.5C8.9875 4.5 4.5 8.9875 4.5 14.5C4.5 20.0125 8.9875 24.5 14.5 24.5C20.0125 24.5 24.5 20.0125 24.5 14.5Z" fill="white"/>
</svg>
