<svg width="30" height="30" viewBox="0 0 30 30" fill="none" xmlns="http://www.w3.org/2000/svg">
<g clip-path="url(#clip0_36_30)">
<path d="M15 3.75C17.8925 3.75 20.57 4.26 22.5725 5.13625C23.5713 5.57375 24.4587 6.12625 25.1125 6.80375C25.7188 7.42875 26.1688 8.21375 26.24 9.12375L26.25 9.375V21.875C26.25 22.8925 25.7738 23.7625 25.1125 24.4462C24.4587 25.1237 23.5713 25.6763 22.5725 26.1138C20.57 26.9888 17.8925 27.5 15 27.5C12.1075 27.5 9.43 26.99 7.4275 26.1138C6.42875 25.6763 5.54125 25.1237 4.8875 24.4462C4.28125 23.8212 3.83125 23.0363 3.76 22.1263L3.75 21.875V9.375C3.75 8.3575 4.22625 7.4875 4.8875 6.80375C5.54125 6.12625 6.42875 5.57375 7.4275 5.13625C9.43 4.26125 12.1075 3.75 15 3.75ZM23.75 19.2587C23.3711 19.4858 22.9777 19.6879 22.5725 19.8638C20.57 20.7388 17.8925 21.25 15 21.25C12.1075 21.25 9.43 20.74 7.4275 19.8638C7.02226 19.6879 6.62892 19.4858 6.25 19.2587V21.875C6.25 22.065 6.3325 22.345 6.685 22.7087C7.0425 23.0788 7.62 23.4688 8.43 23.8237C10.0475 24.5312 12.3687 25 15 25C17.6313 25 19.9525 24.5312 21.57 23.8237C22.38 23.4688 22.9575 23.0788 23.315 22.7087C23.6675 22.3463 23.75 22.065 23.75 21.875V19.2587ZM23.75 13.0087C23.3711 13.2358 22.9777 13.4379 22.5725 13.6137C20.57 14.4887 17.8925 15 15 15C12.1075 15 9.43 14.49 7.4275 13.6137C7.02226 13.4379 6.62892 13.2358 6.25 13.0087V15.625C6.25 15.815 6.3325 16.095 6.685 16.4587C7.0425 16.8287 7.62 17.2188 8.43 17.5737C10.0475 18.2812 12.3687 18.75 15 18.75C17.6313 18.75 19.9525 18.2812 21.57 17.5737C22.38 17.2188 22.9575 16.8287 23.315 16.4587C23.6675 16.0962 23.75 15.815 23.75 15.625V13.0087ZM15 6.25C12.3687 6.25 10.0475 6.71875 8.43 7.42625C7.62 7.78125 7.0425 8.17125 6.685 8.54125C6.3325 8.90375 6.25 9.185 6.25 9.375C6.25 9.565 6.3325 9.845 6.685 10.2087C7.0425 10.5787 7.62 10.9688 8.43 11.3238C10.0475 12.0312 12.3687 12.5 15 12.5C17.6313 12.5 19.9525 12.0312 21.57 11.3238C22.38 10.9688 22.9575 10.5787 23.315 10.2087C23.6675 9.84625 23.75 9.565 23.75 9.375C23.75 9.185 23.6675 8.905 23.315 8.54125C22.9575 8.17125 22.38 7.78125 21.57 7.42625C19.9525 6.71875 17.6313 6.25 15 6.25Z" fill="white"/>
</g>
<defs>
<clipPath id="clip0_36_30">
<rect width="30" height="30" fill="white"/>
</clipPath>
</defs>
</svg>
