<svg width="50" height="50" viewBox="0 0 50 50" fill="none" xmlns="http://www.w3.org/2000/svg">
<path d="M16.5832 38.0833C17.6882 38.0833 18.748 37.6443 19.5294 36.8629C20.3109 36.0815 20.7498 35.0217 20.7498 33.9167C20.7498 32.8116 20.3109 31.7518 19.5294 30.9704C18.748 30.189 17.6882 29.75 16.5832 29.75C15.4781 29.75 14.4183 30.189 13.6369 30.9704C12.8555 31.7518 12.4165 32.8116 12.4165 33.9167C12.4165 35.0217 12.8555 36.0815 13.6369 36.8629C14.4183 37.6443 15.4781 38.0833 16.5832 38.0833ZM37.4165 38.0833C38.5216 38.0833 39.5814 37.6443 40.3628 36.8629C41.1442 36.0815 41.5832 35.0217 41.5832 33.9167C41.5832 32.8116 41.1442 31.7518 40.3628 30.9704C39.5814 30.189 38.5216 29.75 37.4165 29.75C36.3114 29.75 35.2516 30.189 34.4702 30.9704C33.6888 31.7518 33.2498 32.8116 33.2498 33.9167C33.2498 35.0217 33.6888 36.0815 34.4702 36.8629C35.2516 37.6443 36.3114 38.0833 37.4165 38.0833Z" stroke="white" stroke-width="3" stroke-miterlimit="1.5" stroke-linecap="round" stroke-linejoin="round"/>
<path d="M20.8542 33.9167H31.1667V12.25C31.1667 11.9185 31.035 11.6005 30.8006 11.3661C30.5661 11.1317 30.2482 11 29.9167 11H2M11.6875 33.9167H7.41667C7.25251 33.9167 7.08997 33.8843 6.93831 33.8215C6.78666 33.7587 6.64886 33.6666 6.53278 33.5506C6.41671 33.4345 6.32464 33.2967 6.26182 33.145C6.199 32.9934 6.16667 32.8308 6.16667 32.6667V22.4583" stroke="white" stroke-width="3" stroke-linecap="round"/>
<path d="M4.0835 17.25H12.4168" stroke="white" stroke-width="3" stroke-linecap="round" stroke-linejoin="round"/>
<path d="M31.1665 17.25H42.854C43.0956 17.2501 43.332 17.3201 43.5347 17.4518C43.7373 17.5834 43.8974 17.7709 43.9957 17.9917L47.7248 26.3833C47.7959 26.5427 47.8328 26.7151 47.8332 26.8896V32.6667C47.8332 32.8308 47.8008 32.9934 47.738 33.145C47.6752 33.2967 47.5831 33.4345 47.4671 33.5506C47.351 33.6666 47.2132 33.7587 47.0615 33.8215C46.9099 33.8843 46.7473 33.9167 46.5832 33.9167H42.6248M31.1665 33.9167H33.2498" stroke="white" stroke-width="3" stroke-linecap="round"/>
</svg>
