<svg width="36" height="35" viewBox="0 0 36 35" fill="none" xmlns="http://www.w3.org/2000/svg">
<path d="M34 27.5247C34 27.4259 34 27.3272 33.9012 27.2284V27.1296V27.0309L27.8765 17.6482C27.679 17.3519 27.3827 17.1543 27.0864 17.1543H19.0864V10.3395H24.0247C24.6173 10.3395 25.0123 9.94446 25.0123 9.35187V2.93211C25.0123 2.33952 24.6173 1.94446 24.0247 1.94446H12.0741C11.4815 1.94446 11.0864 2.33952 11.0864 2.93211V9.35187C11.0864 9.94446 11.4815 10.3395 12.0741 10.3395H17.0123V17.1543H8.61728C8.22222 17.1543 7.92593 17.3519 7.72839 17.6482L2.09877 27.0309V27.1296V27.2284C2 27.3272 2 27.4259 2 27.5247V30.9815C2 31.5741 2.39506 31.9691 2.98765 31.9691C3.58025 31.9691 3.97531 31.5741 3.97531 30.9815V28.5124H32.0247V31.0803H5.45679C4.8642 31.0803 4.46914 31.4753 4.46914 32.0679C4.46914 32.6605 4.8642 33.0556 5.45679 33.0556H33.0123C33.6049 33.0556 34 32.6605 34 32.0679V27.5247ZM13.0617 3.91977H23.037V8.36421H13.0617V3.91977ZM4.76543 26.5371L9.20988 19.1296H26.4938L31.2346 26.5371H4.76543Z" fill="white"/>
<path d="M25.0123 20.1173H10.7901C10.6913 20.1173 10.4938 20.2161 10.4938 20.3148L7.72837 24.9568C7.62961 25.0556 7.62961 25.2531 7.72837 25.3519C7.82714 25.4506 7.9259 25.5494 8.02467 25.5494H27.9753C28.074 25.5494 28.2716 25.4506 28.3703 25.3519C28.4691 25.2531 28.4691 25.0556 28.3703 24.9568L25.4074 20.3148C25.2099 20.1173 25.1111 20.1173 25.0123 20.1173ZM8.71603 24.7593L10.9876 20.9074H24.716L27.1852 24.7593H8.71603Z" fill="white"/>
<path d="M21.5558 5.30249H14.5435C14.346 5.30249 14.1484 5.50002 14.1484 5.69755C14.1484 5.89508 14.346 6.09261 14.5435 6.09261H21.5558C21.7534 6.09261 21.9509 5.89508 21.9509 5.69755C21.9509 5.50002 21.7534 5.30249 21.5558 5.30249Z" fill="white"/>
</svg>
