<svg width="35" height="35" viewBox="0 0 35 35" fill="none" xmlns="http://www.w3.org/2000/svg">
<g clip-path="url(#clip0_36_52)">
<path fill-rule="evenodd" clip-rule="evenodd" d="M6.48319 18.5527L30.439 20.4548V1.63322C30.439 1.32375 30.1617 1.42246 29.8213 1.46782L9.89442 4.06362C7.0026 4.43979 7.26581 3.0952 10.112 2.72437L30.1231 0.115219C30.2179 0.104548 30.3162 0.0965445 30.4109 0.0938766C32.2604 -0.103544 33.8678 -0.0928723 34.0397 1.17435C34.0503 1.1957 34.0538 1.21971 34.0538 1.24372V1.39312V20.871C34.0538 20.8897 34.0503 20.9084 34.0467 20.9244C34.0538 20.9484 34.0573 20.9751 34.0538 20.9991V21.0017C34.0362 21.1431 33.8292 21.2419 33.5975 21.2232L32.5552 21.1405V30.2938L32.5763 30.2992L34.9943 32.1186L34.882 32.172V32.1747L28.9896 34.9999L-0.00585938 29.0693L3.02985 25.4971L3.08951 25.5051L2.88947 7.80127C2.87192 6.18456 4.98815 6.19256 5.0057 7.80127L5.20925 25.8519L30.439 29.9497V20.9724L6.26911 19.0569C6.20945 19.0782 6.13926 19.0889 6.06556 19.0889C5.83745 19.0889 5.64793 18.9742 5.64793 18.8355V7.67321C5.64793 6.33929 6.48319 6.29928 6.48319 7.66254V18.5527ZM32.5657 1.41179L32.5552 1.78262V20.6229L33.222 20.6736V1.61988V1.39045C33.1343 0.896897 32.5763 1.09698 32.5657 1.41179ZM32.857 31.8839L31.0953 32.7963L32.1586 31.401L32.857 31.8839ZM28.0911 33.7327L30.1933 30.9741L3.91073 26.7029L2.40165 28.477L28.0911 33.7327Z" fill="black"/>
<path d="M27.1893 3.0365C27.1893 2.97019 27.0023 2.91644 26.7716 2.91644C26.541 2.91644 26.354 2.97019 26.354 3.0365V12.1925C26.354 12.2588 26.541 12.3126 26.7716 12.3126C27.0023 12.3126 27.1893 12.2588 27.1893 12.1925V3.0365Z" fill="black"/>
<path d="M23.8939 3.57009C23.8939 3.5362 23.7069 3.50873 23.4762 3.50873C23.2456 3.50873 23.0586 3.5362 23.0586 3.57009V8.30551C23.0586 8.3394 23.2456 8.36687 23.4762 8.36687C23.7069 8.36687 23.8939 8.3394 23.8939 8.30551V3.57009Z" fill="black"/>
</g>
<defs>
<clipPath id="clip0_36_52">
<rect width="35" height="35" fill="black"/>
</clipPath>
</defs>
</svg>
