<svg width="35" height="35" viewBox="0 0 35 35" fill="none" xmlns="http://www.w3.org/2000/svg">
<g clip-path="url(#clip0_36_66)">
<path d="M30.2761 35C25.9816 35 18.3589 34.4632 12.0245 31.5644C2.57669 27.1626 0.107362 20.0767 0 19.7546C0 19.5399 0 19.4325 0 19.3252V1.82515C0 1.18098 0.429448 0.751534 1.07362 0.751534C1.71779 0.751534 2.14724 1.18098 2.14724 1.82515V19.1104C2.57669 20.0767 5.15337 25.8742 12.9908 29.5245C20.2914 32.9601 29.6319 32.8528 32.638 32.7454V15.2454L23.1902 2.14724H4.83129C4.29448 2.14724 3.75767 1.71779 3.75767 1.07362C3.75767 0.429448 4.18712 0 4.83129 0H23.727C24.0491 0 24.3712 0.214724 24.5859 0.429448L34.5706 14.2791C34.6779 14.4939 34.7853 14.7086 34.7853 14.9233V33.819C34.7853 34.3558 34.3558 34.8926 33.819 34.8926C33.6043 34.8926 32.316 35 30.2761 35Z" fill="white"/>
<path d="M30.4909 16.319C26.1964 16.319 18.5737 15.8896 12.3467 12.8835C3.1136 8.69635 0.751641 1.82518 0.644279 1.5031C0.536918 1.28837 0.751641 1.07365 0.966365 0.966286C1.18109 0.858924 1.39581 0.966286 1.50318 1.28837C1.50318 1.39573 3.86514 8.05218 12.7762 12.2393C21.6872 16.4264 33.6044 15.4602 33.7118 15.4602C34.0338 15.4602 34.1412 15.5675 34.1412 15.8896C34.1412 16.1043 34.0338 16.319 33.7118 16.319C33.7118 16.2117 32.4234 16.319 30.4909 16.319Z" fill="white"/>
<path d="M30.4908 25.2301C26.1963 25.2301 18.5736 24.8006 12.3466 21.7945C3.11349 17.5 0.751531 10.6288 0.644169 10.4141C0.536807 10.1994 0.644169 9.98466 0.858893 9.8773C1.07362 9.76993 1.28834 9.8773 1.3957 10.1994C1.3957 10.3067 3.75767 16.9632 12.6687 21.1503C21.5798 25.3374 33.4969 24.3712 33.6043 24.3712C33.9264 24.3712 34.0337 24.4785 34.0337 24.8006C34.0337 25.0153 33.9264 25.2301 33.6043 25.2301C33.7117 25.1227 32.4233 25.2301 30.4908 25.2301Z" fill="white"/>
<path d="M9.98477 11.8098H1.50318C1.18109 11.8098 1.07373 11.5951 1.07373 11.3804C1.07373 11.1657 1.28845 10.9509 1.50318 10.9509H9.98477C10.1995 10.9509 10.4142 11.1657 10.4142 11.3804C10.4142 11.5951 10.1995 11.8098 9.98477 11.8098Z" fill="white"/>
<path d="M33.0677 25.0153C32.9604 25.0153 32.853 24.908 32.7456 24.8006L26.3039 15.9969C26.1966 15.7822 26.1966 15.5675 26.4113 15.3527C26.626 15.2454 26.8407 15.2454 27.0555 15.4601L33.4972 24.2638C33.6045 24.4785 33.6045 24.6932 33.3898 24.908C33.2824 25.0153 33.1751 25.0153 33.0677 25.0153Z" fill="white"/>
<path d="M8.48171 19.7546H1.50318C1.18109 19.7546 1.07373 19.5399 1.07373 19.3251C1.07373 19.1104 1.28845 18.8957 1.50318 18.8957H8.48171C8.69643 18.8957 8.91115 19.1104 8.91115 19.3251C8.91115 19.5399 8.69643 19.7546 8.48171 19.7546Z" fill="white"/>
<path d="M33.0677 34.0338C32.9604 34.0338 32.853 33.9264 32.7456 33.819L26.3039 25.0154C26.1966 24.8006 26.1966 24.5859 26.4113 24.3712C26.626 24.2638 26.8407 24.2638 27.0555 24.4785L33.4972 33.2822C33.6045 33.4969 33.6045 33.7117 33.3898 33.9264C33.2824 33.9264 33.1751 34.0338 33.0677 34.0338Z" fill="white"/>
</g>
<defs>
<clipPath id="clip0_36_66">
<rect width="34.7853" height="35" fill="white"/>
</clipPath>
</defs>
</svg>
