<svg width="18" height="19" viewBox="0 0 18 19" fill="none" xmlns="http://www.w3.org/2000/svg">
<path d="M14.7068 6.66785C14.7985 6.57911 14.8716 6.47294 14.9219 6.35555C14.9723 6.23815 14.9988 6.11187 15 5.98408C15.0011 5.85629 14.9769 5.72955 14.9287 5.61125C14.8805 5.49294 14.8094 5.38545 14.7193 5.29504C14.6293 5.20464 14.5222 5.13312 14.4043 5.08467C14.2864 5.03623 14.1601 5.01182 14.0327 5.01287C13.9053 5.01391 13.7794 5.0404 13.6623 5.09079C13.5452 5.14117 13.4393 5.21444 13.3508 5.30632L9.50543 9.16248L5.66135 5.30632C5.57351 5.21176 5.46759 5.13592 5.3499 5.08332C5.23221 5.03072 5.10517 5.00243 4.97635 5.00015C4.84753 4.99787 4.71957 5.02164 4.6001 5.07005C4.48064 5.11845 4.37211 5.1905 4.28101 5.28189C4.1899 5.37328 4.11808 5.48214 4.06983 5.60198C4.02157 5.72182 3.99788 5.85019 4.00015 5.97941C4.00242 6.10864 4.03062 6.23608 4.08306 6.35414C4.1355 6.4722 4.2111 6.57845 4.30536 6.66657L8.14689 10.524L4.3028 14.3802C4.13333 14.5626 4.04107 14.8039 4.04546 15.0533C4.04984 15.3026 4.15053 15.5405 4.32631 15.7168C4.5021 15.8932 4.73925 15.9942 4.9878 15.9986C5.23636 16.003 5.47691 15.9104 5.65879 15.7404L9.50543 11.8843L13.3495 15.7417C13.5314 15.9117 13.7719 16.0042 14.0205 15.9999C14.2691 15.9955 14.5062 15.8944 14.682 15.7181C14.8578 15.5418 14.9585 15.3039 14.9628 15.0545C14.9672 14.8052 14.875 14.5639 14.7055 14.3814L10.864 10.524L14.7068 6.66785Z" fill="currentColor"/>
</svg>
