<svg width="18" height="19" viewBox="0 0 18 19" fill="none" xmlns="http://www.w3.org/2000/svg">
<g clip-path="url(#clip0_275_182)">
<path d="M9.75194 1.24998C9.75194 1.05106 9.83096 0.860299 9.97161 0.719647C10.1123 0.578995 10.303 0.499977 10.5019 0.499977C12.4904 0.502161 14.3968 1.29304 15.8028 2.69909C17.2089 4.10514 17.9998 6.01152 18.0019 7.99998C18.0019 8.19889 17.9229 8.38966 17.7823 8.53031C17.6416 8.67096 17.4509 8.74998 17.2519 8.74998C17.053 8.74998 16.8623 8.67096 16.7216 8.53031C16.581 8.38966 16.5019 8.19889 16.5019 7.99998C16.5002 6.40923 15.8674 4.88414 14.7426 3.75931C13.6178 2.63448 12.0927 2.00176 10.5019 1.99998C10.303 1.99998 10.1123 1.92096 9.97161 1.78031C9.83096 1.63965 9.75194 1.44889 9.75194 1.24998V1.24998ZM10.5019 4.99998C11.2976 4.99998 12.0607 5.31605 12.6233 5.87866C13.1859 6.44127 13.5019 7.20433 13.5019 7.99998C13.5019 8.19889 13.581 8.38966 13.7216 8.53031C13.8623 8.67096 14.053 8.74998 14.2519 8.74998C14.4509 8.74998 14.6416 8.67096 14.7823 8.53031C14.9229 8.38966 15.0019 8.19889 15.0019 7.99998C15.0007 6.80687 14.5263 5.66297 13.6826 4.81931C12.839 3.97566 11.6951 3.50117 10.5019 3.49998C10.303 3.49998 10.1123 3.579 9.97161 3.71965C9.83096 3.8603 9.75194 4.05106 9.75194 4.24998C9.75194 4.44889 9.83096 4.63965 9.97161 4.78031C10.1123 4.92096 10.303 4.99998 10.5019 4.99998V4.99998ZM17.3217 13.0542C17.7563 13.4901 18.0004 14.0805 18.0004 14.696C18.0004 15.3115 17.7563 15.9019 17.3217 16.3377L16.6392 17.1245C10.4967 23.0052 -4.45081 8.06148 1.33919 1.89948L2.20169 1.14948C2.63802 0.726985 3.22314 0.493264 3.83047 0.498878C4.4378 0.504492 5.0185 0.748991 5.44694 1.17948C5.47019 1.20273 6.85994 3.00798 6.85994 3.00798C7.27231 3.4412 7.50187 4.01667 7.50089 4.61478C7.49991 5.21288 7.26848 5.78761 6.85469 6.21948L5.98619 7.31148C6.46683 8.47931 7.17349 9.54066 8.06557 10.4345C8.95766 11.3284 10.0176 12.0372 11.1844 12.5202L12.2832 11.6465C12.7151 11.233 13.2897 11.0018 13.8877 11.001C14.4856 11.0002 15.0609 11.2297 15.4939 11.642C15.4939 11.642 17.2984 13.031 17.3217 13.0542ZM16.2897 14.1447C16.2897 14.1447 14.4949 12.764 14.4717 12.7407C14.3172 12.5875 14.1084 12.5016 13.8908 12.5016C13.6732 12.5016 13.4645 12.5875 13.3099 12.7407C13.2897 12.7617 11.7769 13.967 11.7769 13.967C11.675 14.0481 11.5537 14.1013 11.4249 14.1213C11.2962 14.1413 11.1644 14.1274 11.0427 14.081C9.53104 13.5182 8.15799 12.637 7.01657 11.4973C5.87514 10.3575 4.99199 8.9858 4.42694 7.47498C4.37684 7.35157 4.36051 7.21704 4.37962 7.08523C4.39873 6.95342 4.4526 6.82907 4.53569 6.72498C4.53569 6.72498 5.74094 5.21148 5.76119 5.19198C5.91439 5.03747 6.00035 4.82869 6.00035 4.6111C6.00035 4.39352 5.91439 4.18474 5.76119 4.03023C5.73794 4.00773 4.35719 2.21148 4.35719 2.21148C4.20037 2.07086 3.99569 1.99555 3.78513 2.00099C3.57456 2.00643 3.37405 2.0922 3.22469 2.24073L2.36219 2.99073C-1.86931 8.07873 11.0839 20.3135 15.5427 16.1L16.2259 15.3125C16.3861 15.1642 16.4822 14.9594 16.4941 14.7415C16.506 14.5236 16.4327 14.3096 16.2897 14.1447V14.1447Z" fill="#E30C29"/>
</g>
<defs>
<clipPath id="clip0_275_182">
<rect width="18" height="18" fill="white" transform="translate(0 0.5)"/>
</clipPath>
</defs>
</svg>
