<svg width="31" height="31" viewBox="0 0 31 31" fill="none" xmlns="http://www.w3.org/2000/svg">
<path d="M10.9 23.4C9.635 23.4 8.6115 24.435 8.6115 25.7C8.6115 26.965 9.635 28 10.9 28C12.165 28 13.2 26.965 13.2 25.7C13.2 24.435 12.165 23.4 10.9 23.4ZM22.4 23.4C21.135 23.4 20.1115 24.435 20.1115 25.7C20.1115 26.965 21.135 28 22.4 28C23.665 28 24.7 26.965 24.7 25.7C24.7 24.435 23.665 23.4 22.4 23.4ZM12.165 17.65H20.7325C21.595 17.65 22.354 17.1785 22.745 16.4655L27 8.404L24.9875 7.3L20.7325 15.35H12.6595L7.7605 5H4V7.3H6.3L10.44 16.0285L8.8875 18.8345C8.048 20.3755 9.152 22.25 10.9 22.25H24.7V19.95H10.9L12.165 17.65ZM16.65 5L21.25 9.6L16.65 14.2L15.0285 12.5785L16.8455 10.75H12.05V8.45H16.8455L15.017 6.6215L16.65 5Z" fill="currentColor"/>
</svg>
