<svg width="19" height="19" viewBox="0 0 19 19" fill="none" xmlns="http://www.w3.org/2000/svg">
<path d="M1.64473 6.66188H4.16211L6.38046 1.94745C6.53269 1.62102 6.90514 1.49103 7.20962 1.6528C7.51681 1.81457 7.63915 2.21032 7.48691 2.53386L5.54586 6.66188H13.4569L11.5131 2.53386C11.3609 2.21032 11.4859 1.81457 11.7904 1.6528C12.0949 1.49103 12.4673 1.62102 12.6195 1.94745L14.8379 6.66188H17.3553H18.3802C18.7227 6.66188 19 6.95653 19 7.32051C19 7.6845 18.7227 7.98204 18.3802 7.98204H17.88L16.4935 16.862C16.4418 17.1856 16.1781 17.4138 15.8818 17.4138V17.4167H3.1209C2.79468 17.4167 2.52826 17.1538 2.50107 16.8158L1.12005 7.98204H0.619831C0.277293 7.98204 0 7.6845 0 7.32051C0 6.95653 0.277293 6.66188 0.619831 6.66188H1.64473ZM10.1212 13.7826C10.1212 14.1466 9.8439 14.4413 9.50136 14.4413C9.15882 14.4413 8.87881 14.1466 8.87881 13.7826V10.2959C8.87881 9.93194 9.15882 9.6344 9.50136 9.6344C9.8439 9.6344 10.1212 9.93194 10.1212 10.2959V13.7826ZM13.2856 13.8895C13.2312 14.2477 12.9131 14.4904 12.576 14.4326C12.2389 14.3748 12.0106 14.0368 12.065 13.6758L12.6087 10.189C12.663 9.83083 12.9811 9.58818 13.3209 9.64595C13.658 9.70373 13.8864 10.0417 13.832 10.3999L13.2856 13.8895ZM6.93776 13.6758C6.99213 14.0368 6.76105 14.3748 6.42395 14.4326C6.08685 14.4904 5.76878 14.2477 5.71441 13.8895L5.16798 10.3999C5.11361 10.0417 5.34468 9.70373 5.68179 9.64595C6.01889 9.58818 6.33696 9.83083 6.39133 10.189L6.93776 13.6758ZM9.50136 7.98204H2.37602L3.64559 16.0965H15.3571L16.624 7.98204H9.50136Z" fill="currentColor"/>
</svg>
