<svg width="35" height="35" viewBox="0 0 35 35" fill="none" xmlns="http://www.w3.org/2000/svg">
<rect width="35" height="35"/>
<path d="M17.785 5.89474C14.3456 5.89474 11.5576 8.6304 11.5576 12.0049C11.5576 15.3795 14.3456 18.1153 17.785 18.1153C21.2243 18.1153 24.0123 15.3795 24.0123 12.0049C24.0123 8.6304 21.2243 5.89474 17.785 5.89474ZM17.785 14.5309C16.3633 14.5309 15.2107 13.3999 15.2107 12.005C15.2107 10.61 16.3633 9.47918 17.785 9.47918C19.2067 9.47918 20.3592 10.61 20.3592 12.005C20.3592 13.3999 19.2067 14.5309 17.785 14.5309Z" fill="currentColor"/>
<path d="M19.9835 22.9771C22.4766 22.4788 23.9706 21.3204 24.0496 21.2582C24.7791 20.6842 24.8963 19.6386 24.3113 18.9227C23.7263 18.2069 22.6607 18.092 21.931 18.6659C21.9156 18.6782 20.3222 19.8775 17.7004 19.8792C15.0787 19.8775 13.4516 18.6782 13.4362 18.6659C12.7065 18.092 11.6409 18.2069 11.0559 18.9227C10.4709 19.6386 10.5881 20.6842 11.3176 21.2582C11.3977 21.3213 12.9533 22.5099 15.5163 22.9965L11.9444 26.6592C11.2952 27.3197 11.3147 28.3714 11.9879 29.0083C12.3165 29.3192 12.74 29.4737 13.1631 29.4737C13.6068 29.4737 14.0499 29.3036 14.3822 28.9655L17.7005 25.4972L21.354 28.988C22.0159 29.6364 23.0878 29.6354 23.7486 28.9861C24.4093 28.3368 24.4085 27.2849 23.7467 26.6366L19.9835 22.9771Z" fill="currentColor"/>
<path d="M17.7004 19.8792C17.6962 19.8792 17.7045 19.8792 17.7004 19.8793C17.6963 19.8792 17.7046 19.8792 17.7004 19.8792Z" fill="currentColor"/>
</svg>
