<svg width="30" height="31" viewBox="0 0 30 31" fill="none" xmlns="http://www.w3.org/2000/svg">
<path d="M11.0833 16.5C11.8348 16.5 12.5554 16.2015 13.0868 15.6701C13.6182 15.1388 13.9167 14.4181 13.9167 13.6666C13.9167 12.9152 13.6182 12.1945 13.0868 11.6632C12.5554 11.1318 11.8348 10.8333 11.0833 10.8333C10.3319 10.8333 9.61122 11.1318 9.07986 11.6632C8.54851 12.1945 8.25 12.9152 8.25 13.6666C8.25 14.4181 8.54851 15.1388 9.07986 15.6701C9.61122 16.2015 10.3319 16.5 11.0833 16.5ZM16.75 12.9583C16.75 12.7705 16.8246 12.5903 16.9575 12.4574C17.0903 12.3246 17.2705 12.25 17.4583 12.25H23.125C23.3129 12.25 23.493 12.3246 23.6259 12.4574C23.7587 12.5903 23.8333 12.7705 23.8333 12.9583C23.8333 13.1462 23.7587 13.3263 23.6259 13.4592C23.493 13.592 23.3129 13.6666 23.125 13.6666H17.4583C17.2705 13.6666 17.0903 13.592 16.9575 13.4592C16.8246 13.3263 16.75 13.1462 16.75 12.9583ZM16.75 16.5C16.75 16.3121 16.8246 16.132 16.9575 15.9991C17.0903 15.8663 17.2705 15.7916 17.4583 15.7916H23.125C23.3129 15.7916 23.493 15.8663 23.6259 15.9991C23.7587 16.132 23.8333 16.3121 23.8333 16.5C23.8333 16.6878 23.7587 16.868 23.6259 17.0008C23.493 17.1337 23.3129 17.2083 23.125 17.2083H17.4583C17.2705 17.2083 17.0903 17.1337 16.9575 17.0008C16.8246 16.868 16.75 16.6878 16.75 16.5ZM18.1667 20.0416C18.1667 19.8538 18.2413 19.6736 18.3741 19.5408C18.507 19.4079 18.6871 19.3333 18.875 19.3333H23.125C23.3129 19.3333 23.493 19.4079 23.6259 19.5408C23.7587 19.6736 23.8333 19.8538 23.8333 20.0416C23.8333 20.2295 23.7587 20.4097 23.6259 20.5425C23.493 20.6754 23.3129 20.75 23.125 20.75H18.875C18.6871 20.75 18.507 20.6754 18.3741 20.5425C18.2413 20.4097 18.1667 20.2295 18.1667 20.0416Z" fill="currentColor"/>
<path d="M6.83333 8C6.08189 8 5.36122 8.29851 4.82986 8.82986C4.29851 9.36122 4 10.0819 4 10.8333L4 22.1667C4 22.9181 4.29851 23.6388 4.82986 24.1701C5.36122 24.7015 6.08189 25 6.83333 25H23.8333C24.5848 25 25.3054 24.7015 25.8368 24.1701C26.3682 23.6388 26.6667 22.9181 26.6667 22.1667V10.8333C26.6667 10.0819 26.3682 9.36122 25.8368 8.82986C25.3054 8.29851 24.5848 8 23.8333 8H6.83333ZM5.41667 10.8333C5.41667 10.4576 5.56592 10.0973 5.8316 9.8316C6.09728 9.56592 6.45761 9.41667 6.83333 9.41667H23.8333C24.2091 9.41667 24.5694 9.56592 24.8351 9.8316C25.1007 10.0973 25.25 10.4576 25.25 10.8333V22.1667C25.25 22.5424 25.1007 22.9027 24.8351 23.1684C24.5694 23.4341 24.2091 23.5833 23.8333 23.5833H16.6933C16.7302 23.3524 16.75 23.1158 16.75 22.875C16.75 20.1366 14.2142 17.9167 11.0833 17.9167C8.12817 17.9167 5.7 19.8972 5.43933 22.4231C5.42406 22.3385 5.41647 22.2526 5.41667 22.1667V10.8333Z" fill="currentColor"/>
</svg>
