<svg width="18" height="19" viewBox="0 0 18 19" fill="none" xmlns="http://www.w3.org/2000/svg">
<g clip-path="url(#clip0_36_249)">
<path fill-rule="evenodd" clip-rule="evenodd" d="M7.87598 1.99985C11.3968 1.99985 14.251 4.85403 14.251 8.37485C14.251 9.86474 13.7399 11.2353 12.8834 12.3206L17.0313 16.4695L15.9706 17.5302L11.8218 13.3823C10.7364 14.2388 9.36587 14.7499 7.87598 14.7499C4.35516 14.7499 1.50098 11.8957 1.50098 8.37485C1.50098 4.85403 4.35516 1.99985 7.87598 1.99985ZM7.87598 3.49985C5.18359 3.49985 3.00098 5.68246 3.00098 8.37485C3.00098 11.0672 5.18359 13.2498 7.87598 13.2498C10.5684 13.2498 12.751 11.0672 12.751 8.37485C12.751 5.68246 10.5684 3.49985 7.87598 3.49985Z" fill="currentColor"/>
</g>
<defs>
<clipPath id="clip0_36_249">
<rect width="18" height="18" fill="white" transform="translate(0 0.5)"/>
</clipPath>
</defs>
</svg>
