<svg width="12" height="12" viewBox="0 0 12 12" fill="none" xmlns="http://www.w3.org/2000/svg">
<path d="M2.71875 11.25C2.38359 11.25 2.09658 11.1324 1.8577 10.8972C1.61883 10.662 1.49959 10.3796 1.5 10.05V4.65C1.5 4.46 1.54327 4.28 1.6298 4.11C1.71633 3.94 1.83556 3.8 1.9875 3.69L5.64375 0.99C5.75547 0.91 5.87227 0.85 5.99414 0.81C6.11601 0.77 6.24297 0.75 6.375 0.75C6.50703 0.75 6.63398 0.77 6.75586 0.81C6.87773 0.85 6.99453 0.91 7.10625 0.99L10.7625 3.69C10.9148 3.8 11.0343 3.94 11.1208 4.11C11.2073 4.28 11.2504 4.46 11.25 4.65V10.05C11.25 10.38 11.1306 10.6626 10.8917 10.8978C10.6528 11.133 10.366 11.2504 10.0312 11.25H7.59375V7.05H5.15625V11.25H2.71875Z" fill="currentColor"/>
</svg>
