<svg width="18" height="19" viewBox="0 0 18 19" fill="none" xmlns="http://www.w3.org/2000/svg">
<g clip-path="url(#clip0_275_192)">
<path d="M9 0.5C7.21997 0.5 5.47991 1.02784 3.99987 2.01677C2.51983 3.00571 1.36628 4.41131 0.685088 6.05585C0.00389957 7.70038 -0.17433 9.50998 0.172937 11.2558C0.520204 13.0016 1.37737 14.6053 2.63604 15.864C3.89472 17.1226 5.49836 17.9798 7.24419 18.3271C8.99002 18.6743 10.7996 18.4961 12.4442 17.8149C14.0887 17.1337 15.4943 15.9802 16.4832 14.5001C17.4722 13.0201 18 11.28 18 9.5C17.9974 7.11384 17.0484 4.82616 15.3611 3.13889C13.6738 1.45162 11.3862 0.502581 9 0.5V0.5ZM9 17C7.51664 17 6.0666 16.5601 4.83323 15.736C3.59986 14.9119 2.63856 13.7406 2.07091 12.3701C1.50325 10.9997 1.35473 9.49168 1.64411 8.03682C1.9335 6.58196 2.64781 5.24559 3.6967 4.1967C4.7456 3.1478 6.08197 2.4335 7.53683 2.14411C8.99168 1.85472 10.4997 2.00325 11.8701 2.5709C13.2406 3.13856 14.4119 4.09985 15.236 5.33322C16.0601 6.56659 16.5 8.01664 16.5 9.5C16.4978 11.4885 15.7069 13.3948 14.3009 14.8009C12.8948 16.2069 10.9885 16.9978 9 17V17Z" fill="#E30C29"/>
<path d="M8.99886 5C8.79995 5 8.60918 5.07902 8.46853 5.21967C8.32788 5.36032 8.24886 5.55109 8.24886 5.75V8.99375L5.72061 10.5777C5.55154 10.6834 5.43134 10.8518 5.38648 11.0461C5.34161 11.2403 5.37574 11.4444 5.48136 11.6135C5.58698 11.7826 5.75545 11.9028 5.94969 11.9476C6.14393 11.9925 6.34804 11.9584 6.51711 11.8527L9.39711 10.0527C9.50592 9.98457 9.59541 9.8896 9.657 9.77692C9.71859 9.66425 9.75022 9.53765 9.74886 9.40925V5.75C9.74886 5.55109 9.66984 5.36032 9.52919 5.21967C9.38854 5.07902 9.19777 5 8.99886 5Z" fill="#E30C29"/>
</g>
<defs>
<clipPath id="clip0_275_192">
<rect width="18" height="18" fill="white" transform="translate(0 0.5)"/>
</clipPath>
</defs>
</svg>
