<svg width="19" height="19" viewBox="0 0 19 19" fill="none" xmlns="http://www.w3.org/2000/svg">
<path d="M15.7949 4.27386C14.1635 2.57561 11.5096 2.57561 9.87867 4.27386L9.49986 4.66808L9.12127 4.27386C7.49034 2.57538 4.83622 2.57538 3.20529 4.27386C1.60748 5.93763 1.5971 8.57489 3.18123 10.4085C4.62606 12.0803 8.88727 15.6922 9.06807 15.8451C9.19081 15.949 9.33849 15.9996 9.48529 15.9996C9.49015 15.9996 9.49501 15.9996 9.49964 15.9993C9.65152 16.0067 9.8045 15.9524 9.93121 15.8451C10.112 15.6922 14.3737 12.0803 15.8189 10.4083C17.4028 8.57489 17.3925 5.93763 15.7949 4.27386ZM14.8344 9.48585C13.7079 10.789 10.6114 13.4766 9.49964 14.4303C8.38793 13.4768 5.29208 10.7894 4.16579 9.48608C3.0607 8.2071 3.05033 6.38564 4.14173 5.24918C4.69913 4.669 5.43115 4.37868 6.16317 4.37868C6.89519 4.37868 7.62721 4.66877 8.18461 5.24918L9.01729 6.11624C9.11641 6.21945 9.24136 6.28105 9.37249 6.30266C9.58529 6.35024 9.8162 6.28841 9.98177 6.11647L10.8149 5.24918C11.9299 4.08859 13.7436 4.08882 14.858 5.24918C15.9494 6.38564 15.939 8.2071 14.8344 9.48585Z" fill="currentColor"/>
</svg>
