<svg width="30" height="31" viewBox="0 0 30 31" fill="none" xmlns="http://www.w3.org/2000/svg">
<path d="M6.40625 8H23.5938C24.922 8 26 9.04533 26 10.3333V21.6667C26 22.2855 25.7465 22.879 25.2952 23.3166C24.844 23.7542 24.2319 24 23.5938 24H6.40625C5.76807 24 5.15603 23.7542 4.70477 23.3166C4.25351 22.879 4 22.2855 4 21.6667V10.3333C4 9.04533 5.078 8 6.40625 8ZM6.0625 21.668C6.0625 21.852 6.2165 22.0013 6.40625 22.0013H23.5938C23.6849 22.0013 23.7724 21.9662 23.8368 21.9037C23.9013 21.8412 23.9375 21.7564 23.9375 21.668V13.0787L15.5225 17.8627C15.3641 17.9529 15.1837 18.0005 15 18.0005C14.8163 18.0005 14.6359 17.9529 14.4775 17.8627L6.0625 13.0787V21.668ZM23.9375 10.76V10.3333C23.9375 10.2449 23.9013 10.1601 23.8368 10.0976C23.7724 10.0351 23.6849 10 23.5938 10H6.40625C6.31508 10 6.22765 10.0351 6.16318 10.0976C6.09872 10.1601 6.0625 10.2449 6.0625 10.3333V10.76L15 15.84L23.9375 10.76Z" fill="currentColor"/>
</svg>
