<svg width="18" height="19" viewBox="0 0 18 19" fill="none" xmlns="http://www.w3.org/2000/svg">
<g clip-path="url(#clip0_275_177)">
<path d="M9 5C8.40666 5 7.82664 5.17595 7.33329 5.50559C6.83994 5.83524 6.45543 6.30377 6.22836 6.85195C6.0013 7.40013 5.94189 8.00333 6.05765 8.58527C6.1734 9.16721 6.45912 9.70176 6.87868 10.1213C7.29824 10.5409 7.83279 10.8266 8.41473 10.9424C8.99667 11.0581 9.59987 10.9987 10.1481 10.7716C10.6962 10.5446 11.1648 10.1601 11.4944 9.66671C11.8241 9.17336 12 8.59334 12 8C12 7.20435 11.6839 6.44129 11.1213 5.87868C10.5587 5.31607 9.79565 5 9 5ZM9 9.5C8.70333 9.5 8.41332 9.41203 8.16665 9.2472C7.91997 9.08238 7.72771 8.84811 7.61418 8.57403C7.50065 8.29994 7.47095 7.99834 7.52882 7.70736C7.5867 7.41639 7.72956 7.14912 7.93934 6.93934C8.14912 6.72956 8.41639 6.5867 8.70737 6.52882C8.99834 6.47094 9.29994 6.50065 9.57403 6.61418C9.84812 6.72771 10.0824 6.91997 10.2472 7.16664C10.412 7.41332 10.5 7.70333 10.5 8C10.5 8.39783 10.342 8.77936 10.0607 9.06066C9.77936 9.34196 9.39783 9.5 9 9.5Z" fill="#E30C29"/>
<path d="M9.00219 18.5C8.37065 18.5033 7.74752 18.3551 7.18499 18.0681C6.62245 17.781 6.13689 17.3633 5.76894 16.85C2.91069 12.9073 1.46094 9.94328 1.46094 8.03978C1.46094 6.03972 2.25546 4.12157 3.66972 2.70732C5.08398 1.29306 7.00213 0.498535 9.00219 0.498535C11.0023 0.498535 12.9204 1.29306 14.3347 2.70732C15.7489 4.12157 16.5434 6.03972 16.5434 8.03978C16.5434 9.94328 15.0937 12.9073 12.2354 16.85C11.8675 17.3633 11.3819 17.781 10.8194 18.0681C10.2569 18.3551 9.63373 18.5033 9.00219 18.5V18.5ZM9.00219 2.13578C7.4365 2.13757 5.93545 2.76033 4.82834 3.86744C3.72123 4.97455 3.09847 6.4756 3.09669 8.04128C3.09669 9.54878 4.51644 12.3365 7.09344 15.8908C7.31221 16.1921 7.59922 16.4374 7.93098 16.6065C8.26273 16.7756 8.62982 16.8638 9.00219 16.8638C9.37456 16.8638 9.74165 16.7756 10.0734 16.6065C10.4052 16.4374 10.6922 16.1921 10.9109 15.8908C13.4879 12.3365 14.9077 9.54878 14.9077 8.04128C14.9059 6.4756 14.2831 4.97455 13.176 3.86744C12.0689 2.76033 10.5679 2.13757 9.00219 2.13578V2.13578Z" fill="#E30C29"/>
</g>
<defs>
<clipPath id="clip0_275_177">
<rect width="18" height="18" fill="white" transform="translate(0 0.5)"/>
</clipPath>
</defs>
</svg>
