<svg width="31" height="31" viewBox="0 0 31 31" fill="none" xmlns="http://www.w3.org/2000/svg">
<path d="M16 7C13.6131 7 11.3239 7.94821 9.63604 9.63604C7.94821 11.3239 7 13.6131 7 16H4L7.89 19.89L7.96 20.03L12 16H9C9 12.13 12.13 9 16 9C19.87 9 23 12.13 23 16C23 19.87 19.87 23 16 23C14.07 23 12.32 22.21 11.06 20.94L9.64 22.36C10.4734 23.198 11.4645 23.8627 12.5561 24.3158C13.6476 24.769 14.8181 25.0015 16 25C18.3869 25 20.6761 24.0518 22.364 22.364C24.0518 20.6761 25 18.3869 25 16C25 13.6131 24.0518 11.3239 22.364 9.63604C20.6761 7.94821 18.3869 7 16 7ZM15 12V17L19.25 19.52L20.02 18.24L16.5 16.15V12H15Z" fill="currentColor"/>
</svg>
