<svg width="15" height="14" viewBox="0 0 15 14" fill="none" xmlns="http://www.w3.org/2000/svg">
<path d="M7.65453 13.816C7.49453 13.816 7.35853 13.76 7.24653 13.648C7.13453 13.536 7.07853 13.4 7.07853 13.24V8.56H2.47053C2.31053 8.56 2.17453 8.504 2.06253 8.392C1.95053 8.28 1.89453 8.144 1.89453 7.984V6.712C1.89453 6.536 1.95053 6.4 2.06253 6.304C2.17453 6.192 2.31053 6.136 2.47053 6.136H7.07853V1.576C7.07853 1.416 7.13453 1.28 7.24653 1.168C7.35853 1.056 7.49453 1 7.65453 1H9.04653C9.22253 1 9.35853 1.056 9.45453 1.168C9.56653 1.28 9.62253 1.416 9.62253 1.576V6.136H14.2305C14.3905 6.136 14.5265 6.192 14.6385 6.304C14.7505 6.4 14.8065 6.536 14.8065 6.712V7.984C14.8065 8.144 14.7505 8.28 14.6385 8.392C14.5265 8.504 14.3905 8.56 14.2305 8.56H9.62253V13.24C9.62253 13.4 9.56653 13.536 9.45453 13.648C9.35853 13.76 9.22253 13.816 9.04653 13.816H7.65453Z" fill="currentColor"/>
</svg>
