<svg width="25" height="26" viewBox="0 0 25 26" fill="none" xmlns="http://www.w3.org/2000/svg">
<path d="M17.3567 14.0134C17.321 13.9955 15.9845 13.3074 15.747 13.2181C15.65 13.1817 15.5461 13.1461 15.4357 13.1461C15.2552 13.1461 15.1036 13.2402 14.9855 13.4249C14.852 13.6323 14.4478 14.1262 14.3229 14.2738C14.3066 14.2933 14.2844 14.3165 14.271 14.3165C14.2591 14.3165 14.0522 14.2275 13.9896 14.1991C12.5558 13.548 11.4676 11.9822 11.3183 11.7182C11.297 11.6802 11.2961 11.663 11.296 11.663C11.3012 11.6429 11.3494 11.5923 11.3743 11.5663C11.4471 11.491 11.526 11.3917 11.6023 11.2957C11.6384 11.2502 11.6746 11.2046 11.7101 11.1617C11.8208 11.027 11.8701 10.9225 11.9273 10.8014L11.9572 10.7385C12.0967 10.4487 11.9776 10.2041 11.9391 10.1251C11.9075 10.0591 11.3431 8.63512 11.2831 8.48553C11.1388 8.12453 10.9482 7.95645 10.6832 7.95645C10.6586 7.95645 10.6832 7.95645 10.5801 7.96099C10.4546 7.96653 9.77096 8.06062 9.4687 8.25982C9.14816 8.47109 8.6059 9.14453 8.6059 10.3289C8.6059 11.3948 9.25293 12.4013 9.53072 12.784C9.53763 12.7937 9.55031 12.8133 9.5687 12.8414C10.6326 14.4657 11.9588 15.6695 13.3033 16.231C14.5976 16.7715 15.2105 16.834 15.559 16.834C15.7054 16.834 15.8227 16.822 15.9261 16.8113L15.9917 16.8048C16.4388 16.7633 17.4214 16.231 17.645 15.5817C17.821 15.0702 17.8675 14.5114 17.7503 14.3086C17.6701 14.1707 17.5318 14.1013 17.3567 14.0134Z" fill="currentColor"/>
<path d="M13.1204 3C8.15517 3 4.11564 7.1914 4.11564 12.3433C4.11564 14.0096 4.54219 15.6407 5.35023 17.0683L3.80362 21.8378C3.77481 21.9268 3.79624 22.0251 3.85916 22.0921C3.90457 22.1405 3.96618 22.1667 4.0291 22.1667C4.0532 22.1667 4.07749 22.1629 4.10118 22.155L8.85833 20.5746C10.1601 21.3017 11.6314 21.6856 13.1205 21.6856C18.0852 21.6856 22.1243 17.4947 22.1243 12.3433C22.1243 7.1914 18.0852 3 13.1204 3ZM13.1204 19.7393C11.7193 19.7393 10.3622 19.3164 9.19565 18.5161C9.15642 18.4892 9.11089 18.4753 9.06505 18.4753C9.04083 18.4753 9.01654 18.4792 8.99291 18.487L6.60987 19.279L7.37916 16.9062C7.40404 16.8294 7.3916 16.7447 7.34577 16.6793C6.45743 15.4103 5.98785 13.911 5.98785 12.3433C5.98785 8.26461 9.18749 4.94629 13.1204 4.94629C17.0527 4.94629 20.252 8.26461 20.252 12.3433C20.2521 16.4215 17.0529 19.7393 13.1204 19.7393Z" fill="currentColor"/>
</svg>
