<svg width="31" height="31" viewBox="0 0 31 31" fill="none" xmlns="http://www.w3.org/2000/svg">
<path fill-rule="evenodd" clip-rule="evenodd" d="M15.5 24.0312C16.9977 24.0334 18.4693 23.6395 19.7656 22.8894V20.0938C19.7656 19.3105 19.4545 18.5594 18.9007 18.0056C18.3469 17.4518 17.5957 17.1406 16.8125 17.1406H14.1875C13.4043 17.1406 12.6531 17.4518 12.0993 18.0056C11.5455 18.5594 11.2344 19.3105 11.2344 20.0938V22.8894C12.5307 23.6395 14.0023 24.0334 15.5 24.0312ZM21.7344 20.0938V21.3236C22.8693 20.1086 23.6245 18.5885 23.9071 16.9501C24.1897 15.3117 23.9874 13.6264 23.3251 12.1014C22.6628 10.5765 21.5694 9.27824 20.1792 8.36636C18.7889 7.45447 17.1626 6.96867 15.5 6.96867C13.8374 6.96867 12.2111 7.45447 10.8208 8.36636C9.43064 9.27824 8.33718 10.5765 7.67487 12.1014C7.01257 13.6264 6.81029 15.3117 7.0929 16.9501C7.37552 18.5885 8.1307 20.1086 9.26562 21.3236V20.0938C9.26561 19.079 9.57907 18.0891 10.1631 17.2593C10.7472 16.4295 11.5733 15.8004 12.5285 15.458C12.0329 14.8879 11.7117 14.1873 11.6033 13.4398C11.4948 12.6922 11.6037 11.9292 11.917 11.2418C12.2302 10.5545 12.7346 9.97167 13.3699 9.56302C14.0052 9.15436 14.7446 8.93707 15.5 8.93707C16.2554 8.93707 16.9948 9.15436 17.6301 9.56302C18.2654 9.97167 18.7698 10.5545 19.083 11.2418C19.3963 11.9292 19.5052 12.6922 19.3967 13.4398C19.2883 14.1873 18.9671 14.8879 18.4715 15.458C19.4267 15.8004 20.2528 16.4295 20.8369 17.2593C21.4209 18.0891 21.7344 19.079 21.7344 20.0938ZM15.5 26C18.2848 26 20.9555 24.8938 22.9246 22.9246C24.8938 20.9555 26 18.2848 26 15.5C26 12.7152 24.8938 10.0445 22.9246 8.07538C20.9555 6.10625 18.2848 5 15.5 5C12.7152 5 10.0445 6.10625 8.07538 8.07538C6.10625 10.0445 5 12.7152 5 15.5C5 18.2848 6.10625 20.9555 8.07538 22.9246C10.0445 24.8938 12.7152 26 15.5 26ZM17.4688 12.875C17.4688 13.3971 17.2613 13.8979 16.8921 14.2671C16.5229 14.6363 16.0221 14.8438 15.5 14.8438C14.9779 14.8438 14.4771 14.6363 14.1079 14.2671C13.7387 13.8979 13.5312 13.3971 13.5312 12.875C13.5312 12.3529 13.7387 11.8521 14.1079 11.4829C14.4771 11.1137 14.9779 10.9062 15.5 10.9062C16.0221 10.9062 16.5229 11.1137 16.8921 11.4829C17.2613 11.8521 17.4688 12.3529 17.4688 12.875Z" fill="currentColor"/>
</svg>
