<svg width="18" height="18" viewBox="0 0 18 18" fill="none" xmlns="http://www.w3.org/2000/svg">
<path d="M5.03922 0.900025C4.41861 0.900025 3.82343 1.14385 3.38459 1.57786C2.94576 2.01188 2.69922 2.60052 2.69922 3.21431V14.7858C2.69922 15.3996 2.94576 15.9882 3.38459 16.4221C3.82343 16.8562 4.41861 17.1 5.03922 17.1H12.0592C12.6799 17.1 13.275 16.8562 13.7139 16.4221C14.1527 15.9882 14.3992 15.3996 14.3992 14.7858V6.00765C14.3988 5.54747 14.2136 5.10628 13.8844 4.78109L10.4762 1.40801C10.3131 1.24686 10.1196 1.11905 9.9066 1.03189C9.69366 0.944728 9.46533 0.899921 9.23484 0.900025H5.03922ZM3.86922 3.21431C3.86922 2.90742 3.99248 2.61309 4.2119 2.39609C4.43132 2.17908 4.72892 2.05716 5.03922 2.05716H8.54922V4.95002C8.54922 5.41037 8.73412 5.85185 9.06321 6.17736C9.39234 6.50287 9.83874 6.68574 10.3042 6.68574H13.2292V14.7858C13.2292 15.0927 13.1059 15.387 12.8865 15.604C12.6671 15.8209 12.3695 15.9429 12.0592 15.9429H5.03922C4.72892 15.9429 4.43132 15.8209 4.2119 15.604C3.99248 15.387 3.86922 15.0927 3.86922 14.7858V3.21431ZM12.987 5.5286H10.3042C10.1491 5.5286 10.0003 5.46764 9.89058 5.35914C9.78087 5.25063 9.71922 5.10347 9.71922 4.95002V2.2967L12.987 5.5286Z" fill="currentColor"/>
</svg>
