<svg width="151" height="26" viewBox="0 0 151 26" fill="none" xmlns="http://www.w3.org/2000/svg">
<path d="M101.318 24.655L103.199 11.2139L96.145 24.655H91.4422L88.1503 11.2139L86.2692 24.655H81.8486L84.9525 2.56641H90.0314L94.5461 19.2974L103.858 2.56641H108.936L105.833 24.655H101.318Z" fill="white"/>
<path d="M125.396 2.56641L130.099 24.655H125.114L124.079 18.4514H117.119L114.392 24.655H109.407L120.411 2.56641H125.396ZM118.624 15.2556H123.609L122.574 6.04419H122.48L118.624 15.2556Z" fill="white"/>
<path d="M133.861 24.655L136.965 2.56641H150.979L150.509 6.23218H140.633L138 24.655H133.861Z" fill="white"/>
<path d="M82.0367 3.69507L82.1307 2.56641H68.1165L68.0225 3.69507H82.0367Z" fill="white"/>
<path d="M67.8343 5.01025L65.0127 24.655H69.2452L71.7847 6.23218H81.6604L81.8486 5.01025H67.8343Z" fill="white"/>
<path d="M63.9784 5.01025H47.3306L44.603 24.655H49.1177L50.2463 16.6655H54.5729C56.1718 16.6655 57.5826 16.5715 58.7113 16.3835C59.84 16.1956 60.7805 15.9136 61.5329 15.3496C62.2854 14.8796 62.8497 14.1277 63.2259 13.1877C63.6021 12.2478 63.9784 11.0259 64.1665 9.52197C64.3546 8.01807 64.3546 6.79614 64.2605 5.8562C64.2605 5.66821 64.1665 5.29224 63.9784 5.01025ZM59.5578 9.52197V9.70996C59.4637 10.4619 59.2756 11.1199 59.0875 11.4958C58.8994 11.9658 58.6172 12.2478 58.3351 12.4358C57.9588 12.6238 57.5826 12.8118 57.0183 12.8118C56.548 12.8118 55.8896 12.9058 55.2313 12.9058H50.8107L51.7512 6.13818H56.1718C56.9242 6.13818 57.4886 6.13818 57.9588 6.23218C58.4291 6.23218 58.8053 6.42017 59.0875 6.60815C59.3697 6.79614 59.5578 7.17212 59.5578 7.64209C59.6518 8.11206 59.6518 8.77002 59.5578 9.52197Z" fill="white"/>
<path d="M62.9436 3.69507C62.3793 3.31885 61.6268 3.03668 60.6863 2.84857C59.6517 2.66046 58.2408 2.56641 56.6419 2.56641H47.7067L47.5186 3.69507H62.9436Z" fill="white"/>
<path d="M40.2763 5.01074H22.782C22.1237 5.6687 21.4653 6.51465 20.9009 7.54858C20.1485 9.05249 19.5842 11.0264 19.2079 13.4702C18.8317 15.9141 18.8317 17.9819 19.2079 19.3918C19.5842 20.8958 20.2426 22.0237 21.089 22.8696C21.9355 23.7156 23.0642 24.1855 24.381 24.4675C25.6977 24.7495 27.1086 24.8435 28.6135 24.8435C30.1183 24.8435 31.6232 24.7495 32.94 24.4675C34.3508 24.1855 35.5735 23.6216 36.7022 22.8696C37.8309 22.0237 38.7714 20.8958 39.6179 19.3918C40.3703 17.8879 40.9347 15.9141 41.3109 13.4702C41.6871 11.0264 41.6871 8.9585 41.3109 7.54858C41.1228 6.60864 40.7466 5.7627 40.2763 5.01074ZM36.7962 13.5642C36.5141 15.5381 36.1379 17.042 35.6676 18.0759C35.1973 19.1099 34.5389 19.8618 33.8805 20.4258C33.2222 20.8958 32.4697 21.1777 31.7173 21.2717C30.9648 21.3657 30.1183 21.3657 29.2718 21.3657C28.4253 21.3657 27.5788 21.3657 26.8264 21.2717C26.074 21.1777 25.4156 20.8958 24.8513 20.4258C24.2869 19.9558 24.0048 19.2039 23.7226 18.0759C23.5345 17.042 23.5345 15.5381 23.8166 13.5642C24.0988 11.5903 24.475 10.0864 24.9453 9.05249C25.4156 8.01855 25.9799 7.2666 26.6383 6.70264C27.2967 6.23267 28.0491 5.95068 28.8016 5.85669C29.554 5.7627 30.4005 5.7627 31.3411 5.7627C32.1875 5.7627 32.94 5.7627 33.6924 5.85669C34.4449 5.95068 35.1033 6.23267 35.6676 6.70264C36.2319 7.17261 36.6081 7.92456 36.7962 9.05249C37.1725 10.0864 37.0784 11.5903 36.7962 13.5642Z" fill="white"/>
<path d="M38.9596 3.69458C38.2071 3.13062 37.2666 2.75464 36.232 2.47266C34.9152 2.19067 33.5044 2.09668 31.9995 2.09668C30.4946 2.09668 28.9897 2.19067 27.5789 2.47266C26.4503 2.75464 25.4156 3.13062 24.4751 3.69458H38.9596Z" fill="white"/>
<path d="M0.397095 5.01025L0.208984 6.23218H6.69878L4.06524 24.655H8.67394L11.2134 6.23218H18.4557L18.6438 5.01025H0.397095Z" fill="white"/>
<path d="M18.8316 3.69507L18.9257 2.56641H0.773071L0.584961 3.69507H18.8316Z" fill="white"/>
</svg>
