<svg width="292" height="66" viewBox="0 0 292 66" fill="none" xmlns="http://www.w3.org/2000/svg">
<path d="M2.56789 63.8566L3.65329 56.3004H0.670898L0.905578 55.5614H7.86774L7.63306 56.3004H4.61156L3.52617 63.8566H2.56789Z" fill="#1D3F65"/>
<path d="M7.9753 59.7041C8.10242 58.7705 8.32732 58.0314 8.63045 57.4674C8.93358 56.9033 9.29537 56.4657 9.72562 56.1643C10.1559 55.8628 10.6252 55.6586 11.163 55.5613C11.6911 55.4641 12.2484 55.4155 12.8351 55.4155C13.4218 55.4155 13.9694 55.4641 14.4681 55.5613C14.9668 55.6586 15.3873 55.8628 15.7197 56.1643C16.062 56.4657 16.2966 56.9033 16.4335 57.4674C16.5704 58.0314 16.5802 58.7802 16.4433 59.7041C16.3064 60.6376 16.0913 61.3767 15.7882 61.9407C15.485 62.5048 15.1135 62.9424 14.693 63.2439C14.2628 63.5453 13.7836 63.7495 13.2556 63.8468C12.7276 63.944 12.1702 63.9927 11.5835 63.9927C10.9968 63.9927 10.4492 63.944 9.95052 63.8468C9.45183 63.7495 9.03136 63.5453 8.6989 63.2439C8.35666 62.9327 8.12198 62.5048 7.98508 61.9407C7.84818 61.3767 7.84818 60.6279 7.9753 59.7041ZM12.7276 56.1254C12.2973 56.1254 11.8866 56.1448 11.4857 56.1837C11.0848 56.2226 10.723 56.349 10.3905 56.5824C10.0581 56.8061 9.76473 57.1659 9.52028 57.6521C9.27582 58.1384 9.09003 58.8288 8.95313 59.7138C8.86513 60.307 8.83579 60.8127 8.85535 61.2211C8.87491 61.6296 8.94335 61.9699 9.05092 62.2325C9.15848 62.4951 9.30515 62.6993 9.48116 62.8451C9.65717 62.991 9.86252 63.098 10.0972 63.1563C10.3319 63.2244 10.5861 63.2633 10.8501 63.273C11.1239 63.2828 11.3977 63.2925 11.6911 63.2925C11.9746 63.2925 12.2484 63.2828 12.5222 63.273C12.796 63.2633 13.06 63.2244 13.3143 63.1563C13.5685 63.0883 13.8032 62.991 14.0281 62.8451C14.253 62.6993 14.4583 62.4951 14.6441 62.2325C14.8299 61.9699 14.9864 61.6393 15.133 61.2211C15.2699 60.8127 15.3873 60.307 15.4753 59.7138C15.6024 58.8288 15.6122 58.1384 15.5046 57.6521C15.3873 57.1659 15.2015 56.8061 14.9277 56.5824C14.6539 56.3588 14.3312 56.2226 13.9401 56.1837C13.5489 56.1448 13.148 56.1254 12.7276 56.1254Z" fill="#1D3F65"/>
<path d="M17.6461 63.8566L18.8292 55.5614H22.2321C22.8579 55.5614 23.3762 55.5905 23.7868 55.6586C24.1975 55.7267 24.5202 55.8531 24.7451 56.0379C24.97 56.2324 25.1167 56.4949 25.1656 56.845C25.2243 57.1951 25.2145 57.6522 25.1362 58.2162C25.058 58.79 24.9407 59.247 24.7842 59.5874C24.6278 59.9375 24.4029 60.2001 24.1193 60.3848C23.8357 60.5696 23.4739 60.696 23.0437 60.7641C22.6134 60.8322 22.0854 60.8613 21.4694 60.8613H19.0052L18.5848 63.8468L17.6461 63.8566ZM24.1584 58.1968C24.2171 57.7494 24.2269 57.3993 24.1877 57.1465C24.1389 56.8937 24.0411 56.6992 23.8748 56.5825C23.7086 56.456 23.4837 56.3782 23.2001 56.3588C22.9166 56.3296 22.5646 56.3199 22.1539 56.3199H19.6702L19.1128 60.1514H21.5965C22.0072 60.1514 22.3592 60.1417 22.6526 60.1125C22.9459 60.0834 23.1904 60.0153 23.3859 59.8889C23.5815 59.7722 23.7379 59.5874 23.8651 59.3346C23.9824 59.0817 24.0704 58.7316 24.1389 58.2746L24.1584 58.1968Z" fill="#1D3F65"/>
<path d="M25.4687 63.8663L26.6519 55.5711H32.0104L31.7757 56.3102H27.4928L26.4074 63.8663H25.4687Z" fill="#1D3F65"/>
<path d="M32.1669 59.7041C32.294 58.7705 32.5189 58.0314 32.822 57.4674C33.1251 56.9033 33.4869 56.4657 33.9172 56.1643C34.3474 55.8628 34.8168 55.6586 35.3546 55.5613C35.8826 55.4641 36.44 55.4155 37.0365 55.4155C37.6232 55.4155 38.1707 55.4641 38.6694 55.5613C39.1681 55.6586 39.5886 55.8628 39.9308 56.1643C40.2633 56.4755 40.5078 56.9033 40.6447 57.4674C40.7816 58.0314 40.7913 58.7802 40.6544 59.7041C40.5273 60.6376 40.3024 61.3767 39.9993 61.9407C39.6962 62.5048 39.3344 62.9424 38.9041 63.2439C38.4739 63.5453 37.9947 63.7495 37.4667 63.8468C36.9387 63.944 36.3813 63.9927 35.7946 63.9927C35.2079 63.9927 34.6603 63.944 34.1616 63.8468C33.6629 63.7495 33.2425 63.5453 32.9002 63.2341C32.558 62.9327 32.3233 62.4951 32.1864 61.931C32.0397 61.3864 32.0397 60.6376 32.1669 59.7041ZM36.9191 56.1351C36.4889 56.1351 36.0782 56.1545 35.6773 56.1934C35.2764 56.2323 34.9146 56.3588 34.5821 56.5922C34.2496 56.8158 33.9563 57.1659 33.7118 57.6521C33.4674 58.1384 33.2718 58.8288 33.1447 59.7138C33.0567 60.307 33.0273 60.8127 33.0469 61.2211C33.0665 61.6296 33.1349 61.9699 33.2425 62.2325C33.35 62.4951 33.4967 62.6993 33.6727 62.8451C33.8487 62.991 34.0541 63.098 34.2887 63.1661C34.5234 63.2341 34.7679 63.273 35.0417 63.2828C35.3155 63.2925 35.599 63.3022 35.8826 63.3022C36.1662 63.3022 36.44 63.2925 36.7138 63.2828C36.9876 63.273 37.2516 63.2341 37.5058 63.1661C37.7601 63.098 37.9947 63.0007 38.2196 62.8549C38.4445 62.709 38.6499 62.5048 38.8357 62.2422C39.0215 61.9797 39.1779 61.6393 39.3246 61.2308C39.4615 60.8224 39.5788 60.3167 39.6668 59.7235C39.7939 58.8386 39.8135 58.1481 39.6962 57.6619C39.5788 57.1756 39.393 56.8158 39.1192 56.5922C38.8454 56.3685 38.5228 56.2323 38.1316 56.1934C37.7405 56.1545 37.3396 56.1351 36.9191 56.1351Z" fill="#1D3F65"/>
<path d="M41.8376 63.8663L43.0208 55.5711H46.6388C47.2646 55.5711 47.7828 55.6003 48.1935 55.6586C48.6042 55.717 48.9269 55.8142 49.1518 55.9698C49.3767 56.1254 49.5234 56.3296 49.5918 56.6116C49.6603 56.8839 49.6603 57.2437 49.6016 57.6814C49.5527 58.012 49.494 58.2746 49.4158 58.4982C49.3376 58.7122 49.2398 58.8969 49.1322 59.0428C49.0247 59.1887 48.8976 59.3248 48.7411 59.4221C48.5944 59.5291 48.4184 59.6166 48.2229 59.7041C48.3891 59.7916 48.5358 59.8791 48.6629 59.9861C48.79 60.0834 48.8976 60.2098 48.9758 60.3557C49.054 60.5015 49.1029 60.696 49.1322 60.91C49.1518 61.1336 49.142 61.3962 49.1029 61.7171C49.0442 62.1547 48.9367 62.5145 48.79 62.7966C48.6433 63.0786 48.4282 63.2925 48.1544 63.4481C47.8806 63.6037 47.5286 63.7107 47.0983 63.769C46.6681 63.8274 46.1401 63.8566 45.524 63.8566L41.8376 63.8663ZM45.6316 63.1369C46.0423 63.1369 46.3943 63.1272 46.6877 63.1175C46.981 63.1077 47.2255 63.0591 47.421 62.9716C47.6166 62.8841 47.7731 62.7479 47.8806 62.5534C47.9882 62.3589 48.0762 62.0867 48.1251 61.7366C48.1837 61.3184 48.1935 60.9878 48.1446 60.7641C48.0957 60.5404 47.998 60.3751 47.8317 60.2779C47.6753 60.1806 47.4601 60.1223 47.1961 60.1028C46.9321 60.0834 46.5997 60.0736 46.2183 60.0736H43.3141L42.8839 63.1369H45.6316ZM46.3356 59.3346C46.7268 59.3346 47.0495 59.3248 47.3135 59.2957C47.5775 59.2665 47.8024 59.2081 47.9784 59.1012C48.1544 58.9942 48.2913 58.8386 48.3891 58.6247C48.4869 58.4107 48.5651 58.1092 48.6238 57.7203C48.6629 57.3993 48.6629 57.1465 48.614 56.9617C48.5651 56.777 48.4478 56.6311 48.2815 56.5338C48.1153 56.4366 47.8904 56.3782 47.6068 56.3491C47.3232 56.3199 46.9712 56.3102 46.5605 56.3102H43.8617L43.4217 59.3346H46.3356Z" fill="#1D3F65"/>
<path d="M51.0195 59.7138C51.1466 58.7802 51.3715 58.0411 51.6746 57.4771C51.9777 56.9131 52.3395 56.4755 52.7698 56.174C53.2 55.8725 53.6694 55.6683 54.2072 55.5711C54.7352 55.4738 55.2926 55.4252 55.8891 55.4252C56.4758 55.4252 57.0233 55.4738 57.522 55.5711C58.0207 55.6683 58.4412 55.8725 58.7834 56.174C59.1159 56.4755 59.3604 56.9131 59.4973 57.4771C59.6342 58.0411 59.6439 58.7899 59.507 59.7138C59.3799 60.6474 59.155 61.3864 58.8519 61.9505C58.5488 62.5145 58.187 62.9521 57.7567 63.2536C57.3265 63.555 56.8473 63.7593 56.3193 63.8565C55.7913 63.9538 55.2339 64.0024 54.6472 64.0024C54.0605 64.0024 53.5129 63.9538 53.0142 63.8565C52.5155 63.7593 52.0951 63.555 51.7528 63.2439C51.4106 62.9424 51.1759 62.5048 51.039 61.9407C50.8923 61.3864 50.8826 60.6376 51.0195 59.7138ZM55.7717 56.1351C55.3415 56.1351 54.9308 56.1545 54.5299 56.1934C54.129 56.2323 53.7672 56.3588 53.4347 56.5922C53.1022 56.8158 52.8089 57.1756 52.5644 57.6521C52.32 58.1384 52.1244 58.8288 51.9973 59.7138C51.9093 60.307 51.8799 60.8127 51.8995 61.2211C51.9191 61.6296 51.9875 61.9699 52.0951 62.2325C52.2026 62.4951 52.3493 62.6993 52.5253 62.8451C52.7013 62.991 52.9067 63.098 53.1413 63.1661C53.376 63.2341 53.6303 63.273 53.8943 63.2828C54.1681 63.2925 54.4516 63.3022 54.7352 63.3022C55.0188 63.3022 55.2926 63.2925 55.5664 63.2828C55.8402 63.273 56.1042 63.2341 56.3584 63.1661C56.6127 63.098 56.8473 63.0007 57.0722 62.8549C57.2971 62.709 57.5025 62.5048 57.6883 62.2422C57.8741 61.9797 58.0305 61.6393 58.1772 61.2308C58.3141 60.8224 58.4314 60.3167 58.5194 59.7235C58.6465 58.8386 58.6563 58.1481 58.5488 57.6619C58.4412 57.1756 58.2456 56.8158 57.9718 56.5922C57.698 56.3685 57.3754 56.2323 56.9842 56.1934C56.5931 56.1545 56.1922 56.1351 55.7717 56.1351Z" fill="#1D3F65"/>
<path d="M60.6804 63.876L61.8636 55.5808H68.1804L67.9457 56.3199H62.7143L62.2938 59.2081H66.5376L66.4301 59.9472H62.1765L61.7365 63.1272H67.1048L66.8701 63.876H60.6804Z" fill="#1D3F65"/>
<path d="M80.9607 63.876L81.958 56.8548L75.9737 63.876H74.9372L76.1204 55.5808H77.0004L76.0031 62.5826L81.9874 55.5808H83.0434L81.8603 63.876H80.9607Z" fill="#1D3F65"/>
<path d="M97.6131 63.487C97.222 63.662 96.7429 63.7982 96.1953 63.8954C95.6379 64.0024 95.061 64.051 94.445 64.051C93.7996 64.051 93.2227 63.9927 92.7142 63.8857C92.2057 63.7787 91.795 63.5745 91.4626 63.2633C91.1301 62.9521 90.9052 62.5145 90.7879 61.9505C90.6705 61.3864 90.6803 60.6474 90.8074 59.7332C90.9345 58.8191 91.1497 58.08 91.4235 57.516C91.707 56.952 92.0493 56.5144 92.46 56.2032C92.8706 55.892 93.3498 55.6878 93.8876 55.5808C94.4254 55.4738 95.0219 55.4155 95.6673 55.4155C96.8993 55.4155 97.8674 55.5905 98.5519 55.9309L98.014 56.6116C97.7794 56.5241 97.4469 56.4268 97.0264 56.3101C96.606 56.1934 96.1268 56.1448 95.589 56.1448C95.1197 56.1448 94.6699 56.174 94.2494 56.2421C93.8289 56.3101 93.4573 56.456 93.1347 56.6991C92.8022 56.9422 92.5284 57.3021 92.2937 57.7786C92.0591 58.2551 91.883 58.9066 91.7755 59.7235C91.6484 60.5501 91.6386 61.2017 91.7461 61.6782C91.8439 62.1547 92.0297 62.5145 92.2839 62.7479C92.5382 62.9813 92.8707 63.1369 93.2618 63.205C93.6529 63.273 94.0929 63.3022 94.5623 63.3022C94.8263 63.3022 95.0903 63.2827 95.3543 63.2439C95.6184 63.205 95.8726 63.1563 96.1073 63.1077C96.3419 63.0591 96.5571 63.0007 96.7624 62.9424C96.958 62.884 97.1242 62.8354 97.2611 62.7868L97.6131 63.487Z" fill="#1D3F65"/>
<path d="M104.957 63.8857L102.669 60.1125H100.556L100.019 63.8857H99.0799L100.263 55.5906H101.202L100.664 59.3735H102.786L106.159 55.5906H107.391C106.756 56.281 106.12 56.9715 105.485 57.6619C104.839 58.3524 104.204 59.0428 103.558 59.7333C104.008 60.4237 104.448 61.1142 104.878 61.8144C105.309 62.5145 105.758 63.205 106.198 63.876H104.957V63.8857Z" fill="#1D3F65"/>
<path d="M114.246 63.8857L115.312 56.3588H111.371L110.413 61.2892C110.305 61.8533 110.178 62.32 110.022 62.6701C109.865 63.0202 109.67 63.2925 109.425 63.487C109.181 63.6815 108.888 63.8079 108.545 63.876C108.193 63.9441 107.783 63.9733 107.284 63.9733L107.46 63.2925C107.743 63.2925 107.988 63.2828 108.193 63.2536C108.408 63.2245 108.584 63.1564 108.751 63.03C108.907 62.9035 109.044 62.709 109.161 62.4465C109.279 62.1839 109.376 61.8144 109.464 61.3379L110.56 55.5906H116.368L115.185 63.8857H114.246Z" fill="#1D3F65"/>
<path d="M123.526 63.8955L122.831 61.299H119.008L117.59 63.8955H116.612L121.179 55.6003H122.313L124.513 63.8955H123.526ZM121.932 57.9342L121.658 56.3685H121.58L120.856 57.9342L119.37 60.6377H122.655L121.932 57.9342Z" fill="#1D3F65"/>
<path d="M132.365 65.4903L132.6 63.8857H126.195L126.009 65.15L125.237 65.2764L125.55 63.1175H125.843C126.097 63.0397 126.312 62.8452 126.498 62.5243C126.674 62.2034 126.831 61.7268 126.948 61.0753L127.975 55.5906H133.793L132.717 63.1175H133.48L133.148 65.3542L132.365 65.4903ZM132.737 56.3685H128.786L127.887 61.0461C127.779 61.5712 127.662 61.9991 127.525 62.3395C127.388 62.6799 127.222 62.9424 127.017 63.1369H131.769L132.737 56.3685Z" fill="#1D3F65"/>
<path d="M142.32 63.4967C141.928 63.6717 141.449 63.8079 140.902 63.9051C140.344 64.0121 139.767 64.0607 139.151 64.0607C138.506 64.0607 137.929 64.0024 137.421 63.8954C136.912 63.7884 136.501 63.5842 136.169 63.273C135.837 62.9618 135.612 62.5242 135.494 61.9602C135.377 61.3962 135.387 60.6571 135.514 59.743C135.641 58.8288 135.856 58.0898 136.13 57.5257C136.413 56.9617 136.756 56.5241 137.166 56.2129C137.577 55.9017 138.056 55.6975 138.594 55.5905C139.132 55.4835 139.728 55.4252 140.374 55.4252C141.606 55.4252 142.574 55.6002 143.258 55.9406L142.72 56.6213C142.486 56.5338 142.153 56.4366 141.733 56.3199C141.312 56.2032 140.833 56.1545 140.295 56.1545C139.826 56.1545 139.376 56.1837 138.966 56.2518C138.545 56.3199 138.174 56.4657 137.851 56.7089C137.518 56.952 137.245 57.3118 137.01 57.7883C136.775 58.2648 136.599 58.9164 136.492 59.7332C136.365 60.5598 136.355 61.2114 136.462 61.6879C136.56 62.1644 136.746 62.5242 137 62.7576C137.254 62.991 137.587 63.1466 137.978 63.2147C138.369 63.2828 138.809 63.3119 139.279 63.3119C139.543 63.3119 139.807 63.2925 140.071 63.2536C140.335 63.2147 140.589 63.1661 140.823 63.1174C141.058 63.0688 141.273 63.0105 141.479 62.9521C141.674 62.8938 141.84 62.8451 141.977 62.7965L142.32 63.4967Z" fill="#1D3F65"/>
<path d="M149.663 63.8955L147.375 60.1223H145.263L144.725 63.8955H143.786L144.97 55.6003H145.908L145.37 59.3832H147.492L150.866 55.6003H152.098C151.462 56.2907 150.827 56.9812 150.191 57.6716C149.546 58.3621 148.91 59.0525 148.275 59.743C148.724 60.4335 149.164 61.1239 149.595 61.8241C150.025 62.5243 150.475 63.2147 150.915 63.8955H149.663Z" fill="#1D3F65"/>
<path d="M152.968 59.743C153.095 58.8094 153.32 58.0703 153.623 57.5063C153.926 56.9423 154.288 56.5046 154.718 56.2032C155.149 55.9017 155.618 55.6975 156.156 55.6002C156.684 55.503 157.241 55.4544 157.838 55.4544C158.424 55.4544 158.972 55.503 159.471 55.6002C159.969 55.6975 160.39 55.9017 160.732 56.2032C161.065 56.5046 161.309 56.9423 161.446 57.5063C161.583 58.0703 161.593 58.8191 161.456 59.743C161.329 60.6765 161.104 61.4156 160.801 61.9797C160.497 62.5437 160.136 62.9813 159.705 63.2828C159.275 63.5842 158.796 63.7885 158.268 63.8857C157.74 63.983 157.183 64.0316 156.596 64.0316C156.009 64.0316 155.462 63.983 154.963 63.8857C154.464 63.7885 154.044 63.5842 153.702 63.273C153.359 62.9716 153.125 62.534 152.988 61.9699C152.841 61.4156 152.831 60.6668 152.968 59.743ZM157.711 56.1643C157.28 56.1643 156.87 56.1837 156.469 56.2226C156.068 56.2615 155.706 56.3879 155.374 56.6213C155.041 56.845 154.748 57.2048 154.503 57.6911C154.259 58.1773 154.063 58.8677 153.936 59.7527C153.848 60.3459 153.819 60.8516 153.838 61.26C153.858 61.6685 153.926 62.0088 154.034 62.2714C154.142 62.534 154.288 62.7382 154.464 62.8841C154.64 63.0299 154.846 63.1369 155.08 63.1952C155.315 63.2633 155.559 63.3022 155.833 63.3119C156.107 63.3217 156.391 63.3314 156.674 63.3314C156.958 63.3314 157.232 63.3217 157.505 63.3119C157.779 63.3022 158.043 63.2633 158.297 63.1952C158.552 63.1272 158.786 63.0299 159.011 62.8841C159.236 62.7382 159.441 62.534 159.627 62.2714C159.813 62.0088 159.969 61.6685 160.116 61.26C160.253 60.8516 160.37 60.3459 160.458 59.7527C160.585 58.8677 160.605 58.1773 160.488 57.6911C160.37 57.2048 160.185 56.845 159.911 56.6213C159.637 56.3977 159.314 56.2615 158.923 56.2226C158.542 56.1837 158.141 56.1643 157.711 56.1643Z" fill="#1D3F65"/>
<path d="M162.629 63.9052L163.812 55.61H170.129L169.894 56.3491H164.663L164.243 59.247H168.496L168.389 59.9861H164.135L163.685 63.1661H169.054L168.819 63.9149L162.629 63.9052Z" fill="#1D3F65"/>
<path d="M177.179 59.743C177.306 58.8094 177.531 58.0703 177.834 57.5063C178.138 56.9423 178.499 56.5046 178.93 56.2032C179.36 55.9017 179.829 55.6975 180.367 55.6002C180.895 55.503 181.452 55.4544 182.049 55.4544C182.636 55.4544 183.183 55.503 183.682 55.6002C184.181 55.6975 184.601 55.9017 184.943 56.2032C185.276 56.5046 185.52 56.9423 185.657 57.5063C185.794 58.0703 185.804 58.8191 185.667 59.7527C185.54 60.6765 185.315 61.4253 185.012 61.9894C184.709 62.5534 184.347 62.991 183.917 63.2925C183.486 63.594 183.007 63.7982 182.479 63.8954C181.951 63.9927 181.394 64.0413 180.807 64.0413C180.22 64.0413 179.673 63.9927 179.174 63.8954C178.675 63.7982 178.255 63.594 177.913 63.2925C177.57 62.991 177.336 62.5534 177.199 61.9894C177.052 61.4253 177.052 60.6765 177.179 59.743ZM181.932 56.174C181.501 56.174 181.091 56.1935 180.69 56.2324C180.289 56.2713 179.927 56.3977 179.595 56.6311C179.262 56.8547 178.969 57.2048 178.724 57.6911C178.48 58.1773 178.284 58.8677 178.157 59.7527C178.069 60.3459 178.04 60.8516 178.059 61.26C178.079 61.6685 178.147 62.0088 178.255 62.2714C178.362 62.534 178.509 62.7382 178.685 62.8841C178.861 63.0299 179.067 63.1369 179.301 63.1952C179.536 63.2633 179.79 63.3022 180.054 63.3119C180.328 63.3217 180.611 63.3314 180.895 63.3314C181.179 63.3314 181.452 63.3217 181.726 63.3119C182 63.3022 182.264 63.2633 182.518 63.1952C182.772 63.1272 183.007 63.0299 183.232 62.8841C183.457 62.7382 183.662 62.534 183.848 62.2714C184.034 62.0088 184.19 61.6685 184.337 61.26C184.474 60.8516 184.591 60.3459 184.679 59.7527C184.806 58.8677 184.816 58.1773 184.709 57.6911C184.591 57.2048 184.405 56.845 184.132 56.6213C183.858 56.3977 183.535 56.2615 183.144 56.2226C182.753 56.1935 182.352 56.174 181.932 56.174Z" fill="#1D3F65"/>
<path d="M186.85 63.9052L188.033 55.61H194.321L194.086 56.3491H188.874L188.542 58.5955H190.996C191.622 58.5955 192.14 58.6247 192.551 58.6927C192.962 58.7608 193.284 58.8872 193.509 59.0623C193.734 59.247 193.881 59.5193 193.939 59.8597C193.998 60.2098 193.988 60.6669 193.91 61.2309C193.832 61.7949 193.714 62.2617 193.558 62.6021C193.402 62.9522 193.177 63.2245 192.903 63.4092C192.619 63.594 192.267 63.7204 191.837 63.7885C191.407 63.8566 190.879 63.8857 190.253 63.8857L186.85 63.9052ZM192.942 61.2114C193.001 60.7641 193.01 60.414 192.971 60.1612C192.922 59.9083 192.825 59.7236 192.658 59.5971C192.492 59.4804 192.267 59.4026 191.984 59.3735C191.7 59.3443 191.348 59.3346 190.937 59.3346H188.454L187.916 63.1661H190.4C190.81 63.1661 191.162 63.1564 191.456 63.1272C191.749 63.098 191.993 63.03 192.189 62.9035C192.385 62.7771 192.541 62.5923 192.658 62.3395C192.776 62.0867 192.864 61.7366 192.932 61.2795L192.942 61.2114Z" fill="#1D3F65"/>
<path d="M195.377 59.7527C195.504 58.8191 195.729 58.08 196.032 57.516C196.335 56.952 196.697 56.5144 197.127 56.2129C197.557 55.9114 198.027 55.7072 198.564 55.61C199.093 55.5127 199.65 55.4641 200.246 55.4641C200.833 55.4641 201.381 55.5127 201.879 55.61C202.378 55.7072 202.799 55.9114 203.141 56.2129C203.473 56.5144 203.718 56.952 203.855 57.516C203.991 58.08 204.001 58.8288 203.864 59.7527C203.737 60.6863 203.512 61.4253 203.209 61.9894C202.906 62.5534 202.544 62.991 202.114 63.2925C201.684 63.594 201.205 63.7982 200.677 63.8954C200.149 63.9927 199.591 64.0413 199.004 64.0413C198.418 64.0413 197.87 63.9927 197.372 63.8954C196.873 63.7982 196.452 63.594 196.11 63.2925C195.768 62.991 195.533 62.5534 195.396 61.9894C195.25 61.4253 195.24 60.6863 195.377 59.7527ZM200.129 56.174C199.699 56.174 199.288 56.1935 198.887 56.2324C198.486 56.2713 198.124 56.3977 197.792 56.6213C197.46 56.845 197.166 57.1951 196.922 57.6911C196.677 58.1773 196.482 58.8677 196.355 59.7527C196.267 60.3459 196.237 60.8516 196.257 61.26C196.276 61.6685 196.345 62.0088 196.452 62.2714C196.56 62.534 196.707 62.7382 196.883 62.8841C197.059 63.0299 197.264 63.1369 197.499 63.1952C197.733 63.2633 197.978 63.3022 198.252 63.3119C198.525 63.3217 198.809 63.3314 199.092 63.3314C199.376 63.3314 199.65 63.3217 199.924 63.3119C200.197 63.3022 200.461 63.2633 200.716 63.1952C200.97 63.1272 201.205 63.0299 201.43 62.8841C201.654 62.7382 201.86 62.534 202.046 62.2714C202.231 62.0088 202.388 61.6685 202.534 61.26C202.671 60.8516 202.789 60.3459 202.877 59.7527C203.004 58.8677 203.023 58.1773 202.906 57.6911C202.789 57.2048 202.603 56.845 202.329 56.6213C202.055 56.3977 201.733 56.2615 201.342 56.2226C200.95 56.1935 200.549 56.174 200.129 56.174Z" fill="#1D3F65"/>
<path d="M205.047 63.9149L206.231 55.6197H209.634C210.259 55.6197 210.778 55.6489 211.188 55.717C211.599 55.785 211.922 55.9115 212.147 56.0962C212.371 56.2907 212.518 56.5533 212.577 56.9034C212.635 57.2535 212.626 57.7105 212.547 58.2746C212.469 58.8483 212.352 59.3054 212.195 59.6458C212.039 59.9958 211.814 60.2584 211.531 60.4432C211.247 60.628 210.885 60.7544 210.455 60.8127C210.025 60.8808 209.497 60.91 208.871 60.91H206.407L205.986 63.8955H205.047V63.9149ZM211.56 58.2454C211.619 57.7981 211.628 57.448 211.589 57.1951C211.54 56.9423 211.443 56.7478 211.276 56.6311C211.11 56.5047 210.895 56.4269 210.602 56.4074C210.318 56.3783 209.966 56.3685 209.555 56.3685H207.072L206.514 60.2001H208.998C209.409 60.2001 209.761 60.1903 210.054 60.1612C210.347 60.132 210.592 60.0639 210.787 59.9375C210.983 59.8208 211.139 59.636 211.257 59.3832C211.374 59.1303 211.462 58.7803 211.531 58.3232L211.56 58.2454Z" fill="#1D3F65"/>
<path d="M213.369 55.6197H214.347L216.615 61.9505L216.948 61.3865L220.282 55.6295H221.348L217.896 61.3379C217.681 61.6782 217.486 61.97 217.319 62.2325C217.153 62.4951 216.997 62.7285 216.85 62.923C216.693 63.1175 216.537 63.2925 216.381 63.4287C216.224 63.5648 216.029 63.6815 215.804 63.7593C215.589 63.8371 215.325 63.9052 215.031 63.9441C214.738 63.983 214.376 64.0024 213.965 64.0024L214.141 63.3217C214.386 63.3217 214.601 63.312 214.796 63.3023C214.982 63.2925 215.148 63.2634 215.295 63.2342C215.442 63.1953 215.569 63.1467 215.686 63.0883C215.804 63.0202 215.921 62.9327 216.019 62.8257L213.369 55.6197Z" fill="#1D3F65"/>
<path d="M227.811 65.5195L228.046 63.9149H221.641L221.456 65.1791L220.683 65.3055L220.996 63.1467H221.289C221.544 63.0689 221.759 62.8744 221.944 62.5535C222.12 62.2325 222.277 61.756 222.394 61.1045L223.421 55.6197H229.239L228.163 63.1467H228.926L228.594 65.3833L227.811 65.5195ZM228.183 56.388H224.233L223.333 61.0656C223.225 61.5907 223.108 62.0186 222.971 62.359C222.834 62.6993 222.668 62.9619 222.463 63.1564H227.215L228.183 56.388Z" fill="#1D3F65"/>
<path d="M230.989 59.7624C231.116 58.8289 231.341 58.0898 231.645 57.5257C231.948 56.9617 232.309 56.5241 232.74 56.2226C233.17 55.9212 233.639 55.7169 234.177 55.6197C234.705 55.5224 235.262 55.4738 235.859 55.4738C236.446 55.4738 236.993 55.5224 237.492 55.6197C237.991 55.7169 238.411 55.9212 238.753 56.2226C239.086 56.5241 239.33 56.9617 239.467 57.5257C239.604 58.0898 239.614 58.8386 239.477 59.7624C239.35 60.696 239.125 61.4351 238.822 61.9991C238.519 62.5631 238.157 63.0008 237.727 63.3022C237.296 63.6037 236.817 63.8079 236.289 63.9051C235.761 64.0024 235.204 64.051 234.617 64.051C234.03 64.051 233.483 64.0024 232.984 63.9051C232.485 63.8079 232.065 63.6037 231.723 63.3022C231.38 63.0008 231.146 62.5631 231.009 61.9991C230.862 61.4351 230.852 60.696 230.989 59.7624ZM235.732 56.1837C235.302 56.1837 234.891 56.2032 234.49 56.2421C234.089 56.281 233.727 56.4074 233.395 56.6408C233.062 56.8645 232.769 57.2146 232.525 57.7008C232.28 58.187 232.085 58.8775 231.957 59.7624C231.869 60.3556 231.84 60.8613 231.86 61.2698C231.879 61.6782 231.948 62.0186 232.055 62.2811C232.163 62.5437 232.309 62.7479 232.485 62.8938C232.661 63.0397 232.867 63.1466 233.101 63.205C233.336 63.2731 233.581 63.3119 233.854 63.3217C234.128 63.3314 234.412 63.3411 234.695 63.3411C234.979 63.3411 235.253 63.3314 235.527 63.3217C235.8 63.3119 236.064 63.2731 236.319 63.205C236.573 63.1369 236.807 63.0397 237.032 62.8938C237.257 62.7479 237.463 62.5437 237.648 62.2811C237.834 62.0186 237.991 61.6782 238.137 61.2698C238.274 60.8613 238.392 60.3556 238.48 59.7624C238.607 58.8775 238.626 58.187 238.509 57.7008C238.392 57.2146 238.206 56.8547 237.932 56.6311C237.658 56.4074 237.335 56.2713 236.944 56.2324C236.563 56.2032 236.162 56.1837 235.732 56.1837Z" fill="#1D3F65"/>
<path d="M240.65 63.9246L241.834 55.6295H245.451C246.077 55.6295 246.596 55.6586 247.006 55.717C247.417 55.7753 247.74 55.8726 247.965 56.0282C248.189 56.1838 248.336 56.388 248.405 56.67C248.473 56.9423 248.473 57.3021 248.414 57.7397C248.365 58.0704 248.307 58.3427 248.229 58.5566C248.15 58.7705 248.053 58.9553 247.945 59.1012C247.837 59.2471 247.71 59.3832 247.554 59.4804C247.407 59.5874 247.231 59.6749 247.036 59.7625C247.202 59.85 247.348 59.9375 247.476 60.0445C247.603 60.1417 247.71 60.2681 247.789 60.414C247.867 60.5599 247.916 60.7544 247.945 60.9683C247.965 61.192 247.955 61.4546 247.916 61.7755C247.857 62.2131 247.749 62.5729 247.603 62.8549C247.456 63.1369 247.241 63.3509 246.967 63.5065C246.693 63.6621 246.341 63.7691 245.911 63.8274C245.481 63.8857 244.953 63.9149 244.337 63.9149L240.65 63.9246ZM244.454 63.1856C244.865 63.1856 245.217 63.1758 245.51 63.1661C245.804 63.1564 246.048 63.1078 246.244 63.0202C246.439 62.9327 246.596 62.7966 246.703 62.6021C246.811 62.4076 246.899 62.1353 246.948 61.7852C247.006 61.367 247.016 61.0364 246.967 60.8127C246.918 60.5891 246.82 60.4237 246.654 60.3265C246.498 60.2292 246.283 60.1709 246.019 60.1515C245.755 60.132 245.422 60.1223 245.041 60.1223H242.137L241.706 63.1856H244.454ZM245.148 59.3929C245.539 59.3929 245.862 59.3832 246.126 59.354C246.39 59.3248 246.615 59.2665 246.791 59.1595C246.967 59.0526 247.104 58.897 247.202 58.683C247.3 58.4691 247.378 58.1676 247.436 57.7786C247.476 57.4577 247.476 57.2049 247.427 57.0201C247.378 56.8353 247.26 56.6895 247.094 56.5922C246.928 56.495 246.703 56.4366 246.42 56.4074C246.136 56.3783 245.784 56.3685 245.373 56.3685H242.674L242.234 59.3929H245.148Z" fill="#1D3F65"/>
<path d="M255.777 63.9246L255.083 61.3281H251.26L249.842 63.9246H248.864L253.431 55.6392H254.565L256.765 63.9344H255.777V63.9246ZM254.193 57.9731L253.92 56.4074H253.841L253.118 57.9731L251.631 60.6766H254.917L254.193 57.9731Z" fill="#1D3F65"/>
<path d="M264.109 63.9246L264.676 59.8986H259.679L259.112 63.9246H258.173L259.356 55.6295H260.295L259.796 59.1304H264.793L265.292 55.6295H266.23L265.047 63.9246H264.109Z" fill="#1D3F65"/>
<path d="M273.153 63.9344L274.151 56.9034L268.167 63.9246H267.13L268.313 55.6295H269.193L268.196 62.6313L274.18 55.6295H275.236L274.053 63.9246H273.153V63.9344Z" fill="#1D3F65"/>
<path d="M276.146 63.9344L277.329 55.6392H283.646L283.411 56.3783H278.18L277.759 59.2665H282.013L281.905 60.0056H277.651L277.202 63.1856H282.57L282.335 63.9344H276.146Z" fill="#1D3F65"/>
<path d="M196.169 43.25L199.826 17.6838L186.136 43.2403H176.974L170.608 17.6741L166.951 43.2403H158.444L164.438 1.37543H174.265L182.948 33.1266L200.823 1.37543H210.65L204.656 43.2403L196.169 43.25Z" fill="#E30C29"/>
<path d="M242.606 1.39488L251.69 43.2598H242.127L240.073 31.454H226.726L221.407 43.2598H211.843L232.906 1.40461L242.606 1.39488ZM229.513 25.3955H239.076L237.023 7.92017H236.807L229.513 25.3955Z" fill="#E30C29"/>
<path d="M258.867 43.2695L264.861 1.40461L291.899 1.41433L290.911 8.38695L271.902 8.37723L266.905 43.2598L258.867 43.2695Z" fill="#E30C29"/>
<path d="M158.894 3.457L159.187 1.37543L132.15 1.3657L131.847 3.47646L158.894 3.457Z" fill="#E30C29"/>
<path d="M131.485 5.97501L126.156 43.2304H134.194L139.191 8.34784H158.2L158.542 5.96529L131.485 5.97501Z" fill="#E30C29"/>
<path d="M124.112 5.98474L91.9613 6.00419L86.6321 43.2207H95.4032L97.5349 28.1571H105.974C109.122 28.1571 111.772 27.9918 113.943 27.6709C116.114 27.3402 117.923 26.7178 119.36 25.7843C120.798 24.8507 121.922 23.499 122.714 21.7388C123.516 19.9786 124.112 17.6641 124.513 14.7953C124.914 11.9265 124.963 9.61206 124.68 7.85188C124.562 7.16143 124.357 6.54877 124.112 5.98474ZM115.537 14.6008L115.468 14.9898C115.243 16.468 114.96 17.6155 114.608 18.4421C114.256 19.2687 113.747 19.8911 113.082 20.2995C112.417 20.7177 111.596 20.9608 110.628 21.0483C109.66 21.1358 108.487 21.1747 107.108 21.1747H98.5421L100.41 8.3284H108.976C110.344 8.3284 111.508 8.37702 112.466 8.46454C113.415 8.55206 114.158 8.80491 114.696 9.21334C115.224 9.63151 115.556 10.2539 115.693 11.1097C115.801 11.9557 115.762 13.1227 115.537 14.6008Z" fill="#E30C29"/>
<path d="M122.088 3.47646C120.974 2.68857 119.517 2.14386 117.678 1.85205C115.595 1.52133 112.985 1.35597 109.846 1.35597H92.6457L92.3426 3.49591L122.088 3.47646Z" fill="#E30C29"/>
<path d="M78.3694 6.00419L44.6635 6.02364C43.3435 7.35592 42.1505 8.9605 41.114 10.8957C39.5886 13.7451 38.4837 17.5182 37.8187 22.2056C37.1538 26.9026 37.1734 30.6758 37.8774 33.5154C38.5814 36.3647 39.7939 38.5625 41.4954 40.099C43.1968 41.6453 45.3187 42.6664 47.8415 43.1623C50.3643 43.6583 53.112 43.9111 56.0748 43.9111C59.0377 43.9111 61.8538 43.6583 64.5135 43.1623C67.1732 42.6664 69.5787 41.6453 71.7593 40.099C73.93 38.5528 75.7781 36.3647 77.3036 33.5154C78.829 30.6661 79.9339 26.8929 80.5989 22.2056C81.2638 17.5085 81.2442 13.7353 80.5402 10.886C80.0513 8.9605 79.3179 7.3462 78.3694 6.00419ZM71.7006 22.2153C71.1726 25.9107 70.4196 28.76 69.4418 30.7536C68.464 32.7569 67.3395 34.2253 66.0487 35.1589C64.7678 36.0925 63.3597 36.637 61.8343 36.7926C60.3089 36.9482 58.7248 37.0163 57.082 37.0163C55.4001 37.0163 53.8161 36.9385 52.3298 36.7829C50.8434 36.6273 49.5918 36.0827 48.5749 35.1492C47.5579 34.2156 46.8539 32.7472 46.4823 30.7439C46.1107 28.7406 46.1792 25.901 46.717 22.2056C47.245 18.5102 47.9882 15.6608 48.9465 13.6673C49.895 11.664 51.0195 10.2053 52.3004 9.26197C53.5814 8.3284 54.9894 7.78381 56.5149 7.62822C58.0403 7.47262 59.6439 7.40455 61.3258 7.40455C62.9197 7.40455 64.4646 7.48235 65.9412 7.63794C67.4275 7.79354 68.6889 8.33812 69.7254 9.27169C70.7619 10.2053 71.4855 11.6737 71.8864 13.677C72.2971 15.6803 72.2286 18.5199 71.7006 22.2153Z" fill="#E30C29"/>
<path d="M75.8759 3.50564C74.3701 2.42594 72.6198 1.65751 70.5761 1.2587C68.0533 0.752901 65.3056 0.5 62.3427 0.5C59.3701 0.5 56.554 0.752901 53.8747 1.24898C51.6942 1.65751 49.6994 2.42594 47.8806 3.51536L75.8759 3.50564Z" fill="#E30C29"/>
<path d="M1.40427 6.05281L1.07181 8.30895H13.5196L8.52289 43.2012H17.294L22.2908 8.31867H36.2444L36.5671 6.03336L1.40427 6.05281Z" fill="#E30C29"/>
<path d="M36.9289 3.52509L37.232 1.33652L2.09853 1.32679L1.77585 3.54455L36.9289 3.52509Z" fill="#E30C29"/>
</svg>
